<?xml version="1.0" encoding="UTF-8"?> <svg xmlns="http://www.w3.org/2000/svg" id="Layer_1" viewBox="0 0 243 60" width="222.75" height="55"><defs><style>.cls-1{fill:#ff8736;}.cls-1,.cls-2{fill-rule:evenodd;}.cls-2{fill:#fff;}</style></defs><g id="logoMark"><path id="logoMark_PathItem_" class="cls-1" d="M22.78,.31c3.8,0,7.22,2.29,8.66,5.8,1.97-.39,3.88,.89,4.26,2.86,.05,.23,.07,.46,.07,.7,0,.08,0,.15,0,.23,1.73,.45,3.32,1.57,3.76,3.37,.07,.29,.11,.58,.11,.87v.6c.72,3.09-1.2,6.17-4.29,6.89-1.41,.33-2.9,.11-4.16-.61-.59,1.22-1.49,2.27-2.6,3.04-3.09,4.99-4.07,11.01-2.73,16.73,2.13-.67,4.4,.52,5.06,2.65,.12,.39,.18,.8,.18,1.2,0,2.36,1.91,4.26,4.27,4.26,2.35,0,4.26-1.91,4.26-4.26v.66c0,4.64-3.77,8.4-8.41,8.41H14.33c-4.64,0-8.4-3.77-8.41-8.41v-.66c0,2.36,1.92,4.26,4.28,4.25,2.35,0,4.25-1.91,4.25-4.25,0-1.36,1.1-2.46,2.46-2.46,.75,0,1.46,.34,1.93,.93,.37-.54,1.01-.81,1.65-.72,.69-2.16,1.03-4.42,1.03-6.69,0-4.96-1.66-9.78-4.74-13.68-2.55,.91-5.38-.08-6.81-2.38-.13,.01-.26,.02-.39,.02-1.63,0-3.06-1.09-3.5-2.66-.11-.27-.16-.55-.16-.84v-2.04c0-.29,.04-.59,.11-.87,.43-1.75,1.95-2.86,3.63-3.33,.9-1.14,2.4-1.64,3.81-1.25C13.97,3.93,17.99,.32,22.78,.31Z"></path><path id="logoMark_PathItem_2" class="cls-2" d="M44.02,39.32s-.89-1.46-1.41-2.13c-1.49-1.93-3.28-3.49-5-5.2-.37-.36-1.14-.98-1.81-1.64l-.02-.02c-.09-.09-.18-.18-.26-.27h0c-.49-.62-.66-1.43-.48-2.19h2.66c1.06-.02,1.9-.9,1.88-1.96v-1l-5.48,.02c-1.01-.01-1.85,.77-1.91,1.78,0,0-.39,3.15,.44,4.53,.6,.84,1.28,1.62,2.04,2.33,1.64,1.62,3.38,3.14,4.79,4.97,1.53,1.98,2.8,4.69,2.61,7.25-.49,6.44-4.42,10.1-10.93,10.65H14.56c-6.51-.54-10.44-4.21-10.93-10.65-.19-2.56,1.08-5.27,2.61-7.25,1.42-1.83,3.16-3.35,4.79-4.97,.75-.71,1.43-1.49,2.04-2.33,.83-1.38,.44-4.53,.44-4.53-.06-1.01-.9-1.79-1.91-1.78l-5.48-.02v1c-.02,1.06,.82,1.94,1.88,1.96h2.66c.18,.76,0,1.57-.48,2.19h0c-.09,.1-.17,.19-.26,.28l-.02,.02c-.67,.66-1.44,1.28-1.81,1.64-1.72,1.71-3.5,3.27-5,5.2-.52,.67-1.41,2.13-1.41,2.13C1.68,39.32-.01,41.91,0,45.88c.64,8.95,6.1,13.81,14.41,13.8,.03,0,.06,0,.09,0H31.2s.06,0,.09,0c8.32,0,13.77-4.85,14.41-13.8,.01-3.97-1.68-6.55-1.68-6.55Z"></path></g><path id="fullLogo" class="cls-2" d="M58.62,45.44l1.37-2.8h11.73l1.4,2.8c1.14,2.48,4.99,.51,3.69-1.97l-8.97-17.84c-.79-1.75-3.08-1.69-3.94,0l-9.13,17.84c-.64,1.34,0,2.48,1.02,3.05,1.14,.22,2.32,0,2.83-1.08h0Zm3.34-7l3.91-7.85,3.59,7.85h-7.51Z"></path><path id="fullLogo-2" class="cls-2" d="M82.94,44.55c0,2.83,4.2,2.77,4.2,0V28.49h5.28c2.83,0,2.83-4.07,0-4.07h-15.04c-2.77,0-2.77,4.07,0,4.07h5.57v16.06Z"></path><path id="fullLogo-3" class="cls-2" d="M118.91,35.39c0-7.54-5.82-11.38-11.38-11.67-5.88,0-11.99,3.85-11.99,11.67s6.11,11.7,11.99,11.45c5.57,0,11.38-3.91,11.38-11.45Zm-4.17,0c0,4.99-3.91,7.54-7.57,7.54s-7.44-2.54-7.44-7.54,3.88-7.54,7.44-7.54c3.66,0,7.57,2.51,7.57,7.54Z"></path><path id="fullLogo-4" class="cls-2" d="M131.76,39.24c1.05,1.4,2.48,1.4,3.63,0l5.28-6.68v11.77c0,1.4,.89,2.19,2.04,2.19,1.02,0,1.91-.79,1.91-2.19V26.42c0-2.19-2.58-2.7-3.63-1.4l-7.25,9.8-7-9.45c-.54-.6-1.08-1.14-2-1.14-1.12,.11-1.95,1.07-1.91,2.19v17.9c0,1.4,.89,2.19,1.91,2.19,1.14,0,2.29-.79,2.29-2.19v-11.77l4.74,6.68Z"></path><path id="fullLogo-5" class="cls-2" d="M149.25,44.58c0,2.7,4.2,2.64,4.2,0V26.42c0-2.7-4.2-2.61-4.2,0v18.16Z"></path><path id="fullLogo-6" class="cls-2" d="M168.52,46.74c2.64,0,5.31-.41,7.54-2.48,1.11-1.11,.86-2.29,.35-2.99-.72-.89-2-1.05-2.93-.38-1.46,1.3-3.15,2.04-4.96,2.04-4.93,0-7.25-3.63-7.25-7.57s2.35-7.35,7.25-7.35c1.81,0,3.15,.38,4.45,1.75,.78,.83,2.08,.88,2.91,.1,.83-.78,.88-2.08,.1-2.91-.06-.06-.12-.12-.19-.18-2.32-2-4.52-2.83-7.28-2.83-7.31,0-11.16,5.28-11.16,11.42s3.47,11.39,11.16,11.39Z"></path><path id="fullLogo-7" class="cls-1" d="M190.59,38.98c-.03,3.15-1.59,3.94-3.37,4.01-1.4,.06-2.83-.32-4.17-1.97-1.65-2.04-4.71,.76-3.08,2.7,1.97,2.54,4.23,3.28,6.93,3.28,5.5,0,7.89-3.02,7.89-8.01v-12.56c0-2.67-4.2-2.67-4.2,0v12.56Z"></path><path id="fullLogo-8" class="cls-1" d="M201.82,45.44l1.37-2.8h11.73l1.4,2.8c1.14,2.48,4.99,.51,3.69-1.97l-8.97-17.84c-.79-1.75-3.08-1.69-3.94,0l-9.13,17.84c-.64,1.34,0,2.48,1.02,3.05,1.14,.22,2.32,0,2.83-1.08h0Zm3.34-7l3.91-7.85,3.59,7.85h-7.51Z"></path><path id="fullLogo-9" class="cls-1" d="M227.13,38.7h4.99l4.8,6.87c1.91,2.42,5.22,.06,3.56-2.39l-4.23-5.15c6.74-2.7,5.09-13.52-2.99-13.52h-8.46c-1.05,0-1.9,.84-1.91,1.89,0,.02,0,.03,0,.05v18.06c0,2.8,4.23,2.7,4.23-.06v-5.76h0Zm0-10.34h6.14c4.39,0,4.13,6.68,0,6.68h-6.14v-6.68Z"></path></svg> 