<?xml version="1.0" encoding="UTF-8" standalone="no"?>
<svg
   fill="none"
   viewBox="0 0 170 56"
   version="1.1"
   id="svg12"
   xmlns="http://www.w3.org/2000/svg"
   xmlns:svg="http://www.w3.org/2000/svg">
  <defs
     id="defs12" />
  <path
     d="M70.6484 37.2709V17.6191h4.8525v19.6518h-4.8525Zm2.6166 0v-4.2028h4.3616a5.9254 5.9254 0 0 0 2.5626-.5067 4.6528 4.6528 0 0 0 1.7447-1.4055 6.1267 6.1267 0 0 0 1.0087-2.0746 9.3184 9.3184 0 0 0 .3275-2.511c0-1.5102-.3953-2.6793-1.186-3.5072-.7906-.8279-2.0856-1.2417-3.8851-1.2414h-4.934v-4.2026h4.934c3.3077 0 5.802.7685 7.4829 2.3054 1.6809 1.5369 2.5216 3.7342 2.5219 6.5918a13.4937 13.4937 0 0 1-.6128 4.0939 9.6794 9.6794 0 0 1-1.9091 3.4391 8.8477 8.8477 0 0 1-3.3387 2.3611c-1.3638.573-3.0176.8595-4.9615.8595l-4.1167.001Zm24.3966.3263c-2.3989 0-4.2071-.3594-5.4249-1.0782-1.2177-.7188-1.8265-1.9517-1.8265-3.6987 0-1.1096.2771-2.0102.8314-2.7018a4.7354 4.7354 0 0 1 2.3025-1.5152 10.8706 10.8706 0 0 1 3.3536-.4776 12.121 12.121 0 0 1 1.6899.109c.5091.0734.9905.1645 1.4444.273v2.8121a7.072 7.072 0 0 0-1.0899-.2458 8.2995 8.2995 0 0 0-1.3084-.1092c-.963 0-1.6765.1364-2.1405.4092a1.4585 1.4585 0 0 0-.6946 1.365c0 .6372.2315 1.0829.6946 1.3371a4.1606 4.1606 0 0 0 1.9768.3825 7.4425 7.4425 0 0 0 1.635-.1773 3.2298 3.2298 0 0 0 1.336-.6144l-.5442 1.3376a7.2795 7.2795 0 0 1-.3004-.7916 4.7901 4.7901 0 0 1-.1639-.7507 8.7896 8.7896 0 0 1-.0683-.955c-.0083-.3728-.0125-.8415-.0127-1.4061v-2.8662a3.2176 3.2176 0 0 0-.3823-1.7191 1.8701 1.8701 0 0 0-1.1581-.8054 7.7936 7.7936 0 0 0-1.9483-.2044 11.5732 11.5732 0 0 0-2.2225.2044 7.7321 7.7321 0 0 0-1.7034.5049h-.2725v-3.6571a18.0564 18.0564 0 0 1 4.7707-.6281 14.5208 14.5208 0 0 1 3.053.3002 6.5173 6.5173 0 0 1 2.4129 1.0235 4.5911 4.5911 0 0 1 1.568 1.9928 8.3463 8.3463 0 0 1 .546 3.2614v3.3027c0 .3821.009.855.027 1.4187.017.5638.045 1.1187.082 1.6649.02.4419.084.8807.19 1.31l-.108.2189c-.66.2438-1.334.4487-2.018.6136a20.694 20.694 0 0 1-2.208.4099 17.8665 17.8665 0 0 1-2.3184.1505Zm15.1814 6.2247a17.8938 17.8938 0 0 1-2.33-.1639 6.989 6.989 0 0 1-2.004-.5191v-3.7937h.382a6.9735 6.9735 0 0 0 1.717.5067c.612.1125 1.232.1719 1.854.1773a8.5221 8.5221 0 0 0 2.386-.2999 3.1222 3.1222 0 0 0 1.594-1.0101c.381-.4739.572-1.1291.572-1.9656v-8.8711c0-.6556.027-1.2562.081-1.8017.011-.4038.124-.7982.328-1.1469l.408.8467a7.0923 7.0923 0 0 1-.776-.0955 8.7254 8.7254 0 0 0-1.349-.096 4.1857 4.1857 0 0 0-2.194.5188 3.0338 3.0338 0 0 0-1.254 1.4468 5.3164 5.3164 0 0 0-.396 2.1027c0 1.2922.309 2.2838.927 2.9749.618.6911 1.59 1.0368 2.917 1.0372.259-.0004.519-.014.777-.0408.321-.0413.636-.1193.94-.2323l-.027 3.5214c-.491.0912-.931.1547-1.323.191-.391.0362-.759.055-1.103.055a10.1266 10.1266 0 0 1-4.226-.8191 6.0842 6.0842 0 0 1-2.78-2.4703c-.654-1.1005-.981-2.4786-.981-4.1344a8.1952 8.1952 0 0 1 .68-3.4667 6.4057 6.4057 0 0 1 1.923-2.429 8.5967 8.5967 0 0 1 2.905-1.4333 12.9962 12.9962 0 0 1 3.597-.4776 13.604 13.604 0 0 1 3.353.3821c.852.204 1.683.4872 2.482.8461l.108.2186c-.085.4319-.135.87-.15 1.31a49.789 49.789 0 0 0-.054 1.6649 92.3843 92.3843 0 0 0-.014 1.42v8.3786c0 1.7647-.377 3.2114-1.132 4.3399a6.7174 6.7174 0 0 1-3.148 2.5108 12.4053 12.4053 0 0 1-4.69.8175Zm18.021 0a17.909 17.909 0 0 1-2.331-.1639 6.9824 6.9824 0 0 1-2.003-.5191v-3.7937h.382a6.9478 6.9478 0 0 0 1.717.5067 10.748 10.748 0 0 0 1.853.1773 8.5106 8.5106 0 0 0 2.385-.3 3.11 3.11 0 0 0 1.594-1.01c.382-.4739.573-1.1291.574-1.9656v-8.8711c0-.6556.027-1.2562.081-1.8017.011-.4039.123-.7985.328-1.1469l.408.8467a7.032 7.032 0 0 1-.777-.0955 8.7383 8.7383 0 0 0-1.35-.0961 4.1919 4.1919 0 0 0-2.194.5189 3.0418 3.0418 0 0 0-1.254 1.4468 5.297 5.297 0 0 0-.394 2.1027c0 1.2922.308 2.2838.926 2.9749.618.6911 1.59 1.0368 2.916 1.0371.26-.0002.519-.0139.778-.0407.321-.0415.637-.1194.941-.2323l-.028 3.5213c-.491.0912-.931.1549-1.322.191-.392.037-.759.055-1.105.055a10.1126 10.1126 0 0 1-4.224-.819 6.0738 6.0738 0 0 1-2.781-2.4703c-.654-1.1005-.982-2.4786-.982-4.1344a8.196 8.196 0 0 1 .682-3.4667 6.4057 6.4057 0 0 1 1.923-2.429 8.5821 8.5821 0 0 1 2.903-1.4334 13.0215 13.0215 0 0 1 3.599-.4775 13.6285 13.6285 0 0 1 3.353.382c.851.2038 1.681.4871 2.48.8462l.109.2186c-.085.4319-.136.87-.152 1.31a49.7802 49.7802 0 0 0-.054 1.6649 92.3727 92.3727 0 0 0-.014 1.42v8.3786c0 1.7647-.377 3.2113-1.131 4.3399a6.7151 6.7151 0 0 1-3.149 2.5108 12.3974 12.3974 0 0 1-4.687.8175Zm21.15-6.2513a14.5278 14.5278 0 0 1-3.666-.4355 7.878 7.878 0 0 1-2.862-1.3513 5.8852 5.8852 0 0 1-1.826-2.4155 9.1527 9.1527 0 0 1-.641-3.6027 8.9413 8.9413 0 0 1 .927-4.2173 6.3322 6.3322 0 0 1 2.644-2.6884 8.4175 8.4175 0 0 1 4.061-.928c1.69 0 3.071.3547 4.143 1.064a6.0331 6.0331 0 0 1 2.332 2.9207 9.8961 9.8961 0 0 1 .585 4.2036l-.027.9822h-11.721v-2.8373h7.142v-.1368c0-.9095-.204-1.6146-.612-2.1154-.408-.5007-1.049-.751-1.923-.7506a2.7032 2.7032 0 0 0-1.459.382 2.4734 2.4734 0 0 0-.954 1.2695 6.92 6.92 0 0 0-.341 2.4153v.8737c0 .9646.195 1.7151.585 2.2517a3.174 3.174 0 0 0 1.623 1.1461 7.7562 7.7562 0 0 0 2.426.3412c.775.0066 1.547-.0758 2.303-.2457a6.1869 6.1869 0 0 0 1.622-.5731h.271v3.7395a9.5007 9.5007 0 0 1-1.948.5184c-.888.1365-1.786.2-2.684.1897Zm8.887-.299v-9.6075c0-.3633-.004-.8318-.012-1.4055a24.6205 24.6205 0 0 0-.083-1.6926c-.03-.4446-.09-.8867-.177-1.3237l.081-.2181a16.209 16.209 0 0 1 1.787-.4917c.662-.1454 1.398-.2682 2.208-.3684.882-.104 1.769-.154 2.657-.1497.273 0 .641.0091 1.105.0271.498.0221.994.0769 1.485.1639v3.7666h-.299a9.7909 9.7909 0 0 0-.995-.1773 8.2124 8.2124 0 0 0-1.049-.0684 9.0917 9.0917 0 0 0-1.69.1502 6.0023 6.0023 0 0 0-1.337.3957l.655-1.064c.309.4368.463 1.3649.463 2.7845v9.2797l-4.799-.0008Z"
     fill="#FEFAD8"
     id="path12"
     style="fill:#131226;fill-opacity:1" />
  <g
     id="Calque_5"
     transform="matrix(0.14885699,0,0,0.14885699,0.03847469,0.01143231)">
	<circle
   class="st0"
   cx="188.10001"
   cy="188.10001"
   r="188.10001"
   id="circle1"
   style="fill:#131226" />

	<circle
   class="st1"
   cx="188.10001"
   cy="188.10001"
   r="161.39999"
   id="circle2"
   style="fill:#0d2b3c" />

	<path
   class="st2"
   d="m 29.8,156.4 c -2.1,10.4 -3.1,21 -3.1,31.7 0,2.9 0,5.7 0.2,8.5 9.9,0.2 18.5,-1.8 24.4,-7 29.5,-25.7 85.2,-18.4 85.2,-18.4 0,0 -17.1,-29.6 -106.7,-14.8 z"
   id="path2-9"
   style="fill:#40b9bc" />

	<path
   class="st3"
   d="m 45.6,112.3 c 83.5,-25.7 104.9,17.3 109.3,31.1 0,0 5.1,-78.4 -59.2,-87.7 -20.9,14.7 -38.1,34 -50.1,56.6 z"
   id="path3-9"
   style="fill:#be1d43" />

	<path
   class="st4"
   d="m 187.4,121 c 0,0 8.7,-54.9 24.2,-92.6 -16,-2.4 -32.3,-2.3 -48.4,0.2 15.5,37.6 24.2,92.4 24.2,92.4 z"
   id="path4-9"
   style="fill:#ef7b1a" />

	<path
   class="st3"
   d="M 280.3,55.6 C 214.8,64.1 220,143.4 220,143.4 224.5,129.5 246.1,86.1 330.9,112.8 318.8,89.9 301.4,70.3 280.3,55.6 Z"
   id="path5-1"
   style="fill:#be1d43" />

	<path
   class="st2"
   d="m 346.4,156.6 c -90.8,-15.3 -108.1,14.6 -108.1,14.6 0,0 55.8,-7.3 85.3,18.4 6.2,5.4 15.3,7.4 25.7,7 0.2,-2.8 0.2,-5.6 0.2,-8.5 0,-10.6 -1,-21.1 -3.1,-31.5 z"
   id="path6-7"
   style="fill:#40b9bc" />

	<path
   class="st5"
   d="m 188.1,349.5 c 4.5,0 8.9,-0.2 13.3,-0.5 -10.7,-18.5 -11.2,-46.6 -11.2,-64 0,0 10.7,47.5 23.7,62.5 42.6,-6.9 80.6,-30.5 105.7,-65.6 -4.5,-4.3 -14.4,-10.2 -27.8,2 0,0 5.9,-23.4 32.5,-12.5 -6.4,-16.8 -25.2,-25.2 -41.9,-18.8 -16.8,6.4 -25.2,25.2 -18.8,41.9 1.1,2.9 2.6,5.6 4.5,8.1 -8.2,1.5 -15.6,6.2 -20.4,13.1 -1.5,-8.8 -9.9,-14.8 -18.7,-13.3 -2.5,0.4 -4.9,1.4 -6.9,3 -4.4,-3.9 -8.3,-8.4 -11.4,-13.4 -10.2,-15.3 -14.7,-38.9 -16.4,-52.3 -0.5,-3.7 -3.9,-6.3 -7.6,-5.8 -3,0.4 -5.4,2.8 -5.8,5.8 -1.7,13.4 -7.3,36.9 -17.6,52.3 -13.1,19.6 -22.3,21.6 -27.7,0 h -0.1 c -5.8,-20.5 -27.1,-32.5 -47.6,-26.8 -11.8,3.3 -21.4,12.1 -25.7,23.6 5.6,7 11.8,13.6 18.6,19.6 20.2,-17.4 37.2,6.2 37.2,6.2 -14.5,-6.7 -24.4,-4.9 -31,-0.9 19.7,16 42.9,27 67.7,32.3 10.5,-12.1 20.7,-34.6 20.7,-34.6 0,7.6 -4.4,25.4 -10.9,36.4 7.6,1.2 15.6,1.7 23.6,1.7 z"
   id="path7-2"
   style="fill:#fcc009" />

	<path
   class="st6"
   d="m 192.6,139.2 c -2.6,-2.9 -7,-3.1 -9.9,-0.5 -0.2,0.2 -0.3,0.3 -0.5,0.5 -36.6,40.5 -45.5,94.8 -35,102.1 11,7.6 24.7,-25.4 39.5,-25.8 h 1.4 c 14.8,0.3 28.5,33.3 39.5,25.8 10.5,-7.3 1.6,-61.7 -35,-102.1 z m -5.1,53.7 c -6,0 -10.8,-4.9 -10.8,-10.8 0,-6 4.9,-10.8 10.8,-10.8 6,0 10.8,4.9 10.8,10.8 0,0 0,0 0,0 0,5.9 -4.8,10.8 -10.8,10.8 0,0 0,0 0,0 z"
   id="path8-3"
   style="fill:#fefad8" />

	<path
   class="st7"
   d="m 182.3,139.2 c 1.3,-1.4 3.2,-2.3 5.1,-2.3 v 34.3 c -6,0 -10.8,4.9 -10.8,10.8 0,6 4.9,10.8 10.8,10.8 v 22.6 h -0.7 c -14.8,0.3 -28.5,33.3 -39.5,25.8 -10.5,-7.2 -1.5,-61.6 35.1,-102 z"
   id="path9-6"
   style="fill:#fae1b6" />

</g>
</svg>
