<svg id="Layer_1" data-name="Layer 1" xmlns="http://www.w3.org/2000/svg" width="336.7" height="185.13" viewBox="0 0 336.7 185.13">
  <defs>
    <style>
      .cls-1 {
        fill: #fb7a2f;
      }

      .cls-2 {
        fill: #292929;
      }

      .cls-3 {
        fill: #fff;
      }
    </style>
  </defs>
  <path class="cls-1" d="M362.63,166.31l-74.34,42.94a6.7,6.7,0,0,1-6.71,0l-74.36-42.91a6.7,6.7,0,0,1-3.36-5.81l0-85.85a6.72,6.72,0,0,1,3.36-5.82l74.34-42.94a6.7,6.7,0,0,1,6.71,0l74.36,42.91A6.7,6.7,0,0,1,366,74.64l0,85.85A6.72,6.72,0,0,1,362.63,166.31Z" transform="translate(-29.29 -25.02)"/>
  <g>
    <path class="cls-2" d="M31,93.05H59.54c.5,0,1,0,1.43.06a1.29,1.29,0,0,1,1,.5,1.16,1.16,0,0,1,.16.43,1.59,1.59,0,0,0,.15.5v.68a4.72,4.72,0,0,1,0,.93q0,.5,0,.93t0,1a4.47,4.47,0,0,1,0,.9,5.36,5.36,0,0,0-.06.93,1.5,1.5,0,0,1-.62,1,1.61,1.61,0,0,1-.93.25H44l-1.15,0c-.43,0-.86,0-1.3,0a10.77,10.77,0,0,0-1.21.12,1.88,1.88,0,0,0-.8.28,1.31,1.31,0,0,0-.53.9,8.88,8.88,0,0,0-.09,1.33V109a6.21,6.21,0,0,0,.25.84,1,1,0,0,0,.43.53,1.79,1.79,0,0,0,.87.28q.49,0,1,0h14l1.09,0c.43,0,.86,0,1.27,0s.79,0,1.15.09a1.55,1.55,0,0,1,.77.25,1.05,1.05,0,0,1,.43.74,6.44,6.44,0,0,1,.16,1.21c0,.44,0,.88,0,1.33s0,.85,0,1.18v.87a1.82,1.82,0,0,1-.13.74,1.44,1.44,0,0,1-.49.81,2.2,2.2,0,0,1-.84.25,10.43,10.43,0,0,1-1.18.06l-1.3,0-1.08,0H43.24c-.5,0-1,0-1.43,0a6.52,6.52,0,0,0-1.27.06,2.43,2.43,0,0,0-1,.37,1.59,1.59,0,0,0-.59.84,3.42,3.42,0,0,0-.06.65v6.48a8.88,8.88,0,0,0,.09,1.33,1.31,1.31,0,0,0,.53.9A.77.77,0,0,0,40,129a2.33,2.33,0,0,1,.59.15h.62a2.51,2.51,0,0,0,.68,0l.68,0H61.06a1.79,1.79,0,0,1,.84.19,1.09,1.09,0,0,1,.68.68,3,3,0,0,1,.16.74q0,.44,0,.93v2.86a12.19,12.19,0,0,1-.07,1.39,1.17,1.17,0,0,1-.55,1,1.44,1.44,0,0,1-1,.31H32a11.14,11.14,0,0,1-1.51-.09,1.29,1.29,0,0,1-1-.59,1.75,1.75,0,0,1-.24-1v-41a1.41,1.41,0,0,1,.24-.87,1.45,1.45,0,0,1,.93-.62.37.37,0,0,1,.25,0A.37.37,0,0,0,31,93.05Z" transform="translate(-29.29 -25.02)"/>
    <path class="cls-2" d="M68.47,105.26h5c.58,0,1.13,0,1.64.06a2.44,2.44,0,0,1,1.27.44,3,3,0,0,1,.78.84c.23.35.44.69.65,1,.33.54.68,1.06,1,1.58s.75,1,1.12,1.58l.71,1.12a1.82,1.82,0,0,0,1,.8.72.72,0,0,0,.46,0,.87.87,0,0,0,.34-.22,2.18,2.18,0,0,0,.68-.74c.17-.29.36-.58.56-.87.33-.53.68-1.06,1.06-1.58s.74-1,1.11-1.58a15,15,0,0,1,1-1.49,2.65,2.65,0,0,1,1.58-.87,2.83,2.83,0,0,1,.93-.09c.33,0,.67,0,1,0H94.2a6.89,6.89,0,0,1,1.21.1.77.77,0,0,1,.71.58.64.64,0,0,1,0,.59,4.49,4.49,0,0,1-.28.47,6.09,6.09,0,0,1-.74,1.15,9.69,9.69,0,0,0-.81,1.14q-1.42,2-2.79,4c-.91,1.32-1.84,2.65-2.79,4l-.74,1a6.41,6.41,0,0,0-.68,1.12,1.6,1.6,0,0,0-.22.49,1.31,1.31,0,0,0,0,.62,3.31,3.31,0,0,0,.53,1.15c.22.31.44.63.65,1l.74,1c.25.36.48.7.68,1q1.36,1.92,2.67,3.84l2.66,3.91c.33.49.69,1,1.06,1.48s.72,1,1,1.55c.08.13.19.3.31.53a.69.69,0,0,1,0,.71.7.7,0,0,1-.68.5,11,11,0,0,1-1.18.06H89.8l-.62-.09a2,2,0,0,1-.62-.16,3.92,3.92,0,0,1-1.12-1.24c-.29-.49-.6-1-.93-1.42-.45-.62-.89-1.25-1.3-1.89s-.83-1.27-1.24-1.89c-.25-.38-.55-.84-.9-1.4a2.11,2.11,0,0,0-1.21-1,.75.75,0,0,0-.74.15,2.15,2.15,0,0,0-.44.53c-.33.46-.65.92-1,1.4l-1,1.45-2.42,3.54c-.2.33-.42.66-.65,1a2.41,2.41,0,0,1-.9.8,4.52,4.52,0,0,1-2,.28l-2.26,0h-2l-.52,0a1.15,1.15,0,0,1-.47,0,1.22,1.22,0,0,0-.46,0,.6.6,0,0,1-.41-.09,2.76,2.76,0,0,1-.28-.22l-.21-.22a1.58,1.58,0,0,1,.18-1c.17-.27.33-.53.5-.77.33-.46.65-.91,1-1.37s.63-.91,1-1.36c.83-1.2,1.65-2.42,2.48-3.66l2.48-3.72c.29-.37.56-.74.81-1.12l.74-1.11c.21-.29.4-.58.59-.87a2.91,2.91,0,0,0,.4-1,.68.68,0,0,0,0-.56l-.18-.37a6.14,6.14,0,0,0-.72-1.21c-.27-.35-.52-.72-.77-1.09-1-1.44-1.91-2.84-2.88-4.18s-1.94-2.74-2.89-4.19a11.67,11.67,0,0,0-.68-1,9.44,9.44,0,0,1-.68-1c-.08-.13-.18-.27-.28-.44a.61.61,0,0,1,0-.56.7.7,0,0,1,.31-.4l.49-.22A1.34,1.34,0,0,0,68.47,105.26Z" transform="translate(-29.29 -25.02)"/>
    <path class="cls-2" d="M130.84,134.77a10.65,10.65,0,0,1,.16,1.37.89.89,0,0,1-.65.93,2,2,0,0,1-.87.18h-4.34c-.37,0-.74,0-1.09,0a1.37,1.37,0,0,1-.83-.28,1.57,1.57,0,0,1-.66-.71,2.15,2.15,0,0,0-.58-.77,1.16,1.16,0,0,0-.31-.22.81.81,0,0,0-.5,0,2.77,2.77,0,0,0-.59.31,3.32,3.32,0,0,1-.59.31,3.92,3.92,0,0,1-.68.43l-.74.37a9.05,9.05,0,0,1-1.68.59l-1.8.47a4.42,4.42,0,0,1-.83.15c-.27,0-.55,0-.84.1a2.31,2.31,0,0,0-.37,0l-.37,0H112a3.23,3.23,0,0,1-1.24,0h-.55a2.24,2.24,0,0,0-.84-.09,2,2,0,0,1-.78-.1l-1.17-.21a3.77,3.77,0,0,1-1.06-.35,10.29,10.29,0,0,1-3.07-1.76,7.53,7.53,0,0,1-2-2.89,6.7,6.7,0,0,1-.34-.93,10,10,0,0,1-.28-1,1.23,1.23,0,0,1-.1-.62,2.15,2.15,0,0,0,0-.62,3.66,3.66,0,0,1-.09-.77,3.3,3.3,0,0,1,0-.84,5.83,5.83,0,0,0,.13-1.06c.12-.45.24-.92.37-1.39a5.42,5.42,0,0,1,.49-1.27,8.37,8.37,0,0,1,2.42-2.73,13.53,13.53,0,0,1,3.47-1.61,8,8,0,0,1,1.68-.44c.58-.08,1.15-.18,1.73-.31a5.89,5.89,0,0,1,1.06-.15,6.06,6.06,0,0,0,1.11-.16,2.58,2.58,0,0,1,.87-.09,3.05,3.05,0,0,0,.93-.09,3.27,3.27,0,0,1,.87-.13,4,4,0,0,0,.93-.12c.87-.21,1.66-.38,2.39-.53a3.74,3.74,0,0,0,2-1.08,2.76,2.76,0,0,0,.74-1.24.59.59,0,0,0,0-.31.32.32,0,0,1,0-.25.89.89,0,0,0,.06-.37v-.37a4.42,4.42,0,0,1-.1-.5,2.31,2.31,0,0,0-.09-.43,3.92,3.92,0,0,0-2.6-2.55,7,7,0,0,0-1.34-.27,9.15,9.15,0,0,0-1.58-.07,12.91,12.91,0,0,0-1.55.16,7.77,7.77,0,0,0-1.3.31,3.3,3.3,0,0,0-.71.34,6.29,6.29,0,0,0-.65.46,4,4,0,0,0-.65.69,2.63,2.63,0,0,0-.47.8c-.21.42-.38.81-.53,1.18a1.21,1.21,0,0,1-.89.74,4.11,4.11,0,0,1-1.06.13h-3.47c-.21,0-.41,0-.62,0a1.7,1.7,0,0,1-.56,0H103a.68.68,0,0,0-.31-.06.42.42,0,0,1-.31-.13,1,1,0,0,1-.68-.8,1.62,1.62,0,0,1,0-.62,5.22,5.22,0,0,1,.13-.56,11.9,11.9,0,0,1,.4-1.27,5.51,5.51,0,0,1,.53-1.09l.37-.62.37-.62a7.16,7.16,0,0,1,1.24-1.3,1.54,1.54,0,0,0,.37-.31c.21-.16.39-.31.56-.43a5.43,5.43,0,0,1,.56-.38,10.21,10.21,0,0,1,2.23-1.08c.78-.27,1.59-.53,2.42-.78a9.47,9.47,0,0,1,1.55-.24,11.43,11.43,0,0,0,1.61-.25,2.4,2.4,0,0,1,.77,0c.36,0,.57,0,.66-.06a38.47,38.47,0,0,1,4.86.18,18.57,18.57,0,0,1,4.22.93,10.78,10.78,0,0,1,3.25,1.83,7.52,7.52,0,0,1,2.11,2.95,7.12,7.12,0,0,1,.5,2.41q.06,1.36.06,2.79v16.22a8.87,8.87,0,0,0,.25,2.2,1.29,1.29,0,0,1,.06.4A1.25,1.25,0,0,0,130.84,134.77Zm-9.11-9.54a4.29,4.29,0,0,0,0-1.43,2,2,0,0,1-.13-.68.61.61,0,0,0-.24-.5,1.52,1.52,0,0,0-.93-.25,3.31,3.31,0,0,1-.44.1l-.43.09a6.37,6.37,0,0,1-.93.19,8.58,8.58,0,0,0-1,.18,2,2,0,0,1-.56.06,10.14,10.14,0,0,1-1.61.25,6.56,6.56,0,0,0-1.55.31l-.93.22a4.19,4.19,0,0,0-.87.28,5.64,5.64,0,0,0-2.2,1.67,4,4,0,0,0-.65,3.1,3.28,3.28,0,0,0,.68,1.74,2.93,2.93,0,0,0,1.3,1.08,7.58,7.58,0,0,0,1.89.59,8.16,8.16,0,0,0,2.17.1,10.15,10.15,0,0,0,2.14-.41,5.34,5.34,0,0,0,2.54-1.58,7.39,7.39,0,0,0,1.43-2.7,4.24,4.24,0,0,0,.15-.89,5,5,0,0,1,.16-1Z" transform="translate(-29.29 -25.02)"/>
    <path class="cls-2" d="M155.7,104.46a12.17,12.17,0,0,1,4,.49,10,10,0,0,1,3,1.55,5.28,5.28,0,0,1,.9.87q.41.5.9,1a3.37,3.37,0,0,0,.4.34.56.56,0,0,0,.59.1,2.75,2.75,0,0,0,1.3-.9,6.34,6.34,0,0,1,1.18-1.09,9.87,9.87,0,0,1,1.86-1.14c.66-.31,1.41-.61,2.23-.9a9.19,9.19,0,0,1,1.21-.22c.48-.06,1-.1,1.49-.12a12.18,12.18,0,0,1,1.49,0,10.2,10.2,0,0,1,1.27.18,3,3,0,0,0,.56.06,1.65,1.65,0,0,1,.56.13l1.67.49a6.33,6.33,0,0,1,1.49.69,9.82,9.82,0,0,1,3.9,4.71,5.74,5.74,0,0,1,.38,1.15q.12.59.24,1.14c0,.29.07.56.1.81s0,.49.09.74v.62a4,4,0,0,1,0,.87q0,.49,0,.93v15.69q0,.5,0,1.14c0,.44,0,.85,0,1.24a6.45,6.45,0,0,1-.15,1.12,1.21,1.21,0,0,1-.38.71,1.57,1.57,0,0,1-1,.34c-.39,0-.81,0-1.27,0h-3.29a8.92,8.92,0,0,1-1.54-.12,1.18,1.18,0,0,1-.94-.68,2.49,2.49,0,0,1-.18-1V120c0-.21,0-.44,0-.68a1.57,1.57,0,0,0-.09-.69v-1.24a3.78,3.78,0,0,0-.07-.74,2.2,2.2,0,0,1-.06-.53,2.18,2.18,0,0,0-.06-.52,14,14,0,0,0-.53-1.65,3.63,3.63,0,0,0-.83-1.27,4.93,4.93,0,0,0-2.11-1.24,1.1,1.1,0,0,0-.43,0,.76.76,0,0,1-.44-.09,3.89,3.89,0,0,0-.59-.09,2.33,2.33,0,0,0-.65,0,2.43,2.43,0,0,1-.74.12,2.45,2.45,0,0,0-.75.12,4.91,4.91,0,0,0-2.6,1.86,7.1,7.1,0,0,0-1.27,3.57,45.11,45.11,0,0,0-.22,4.68v14a1.45,1.45,0,0,1-.31,1,1.31,1.31,0,0,1-.9.53,8.88,8.88,0,0,1-1.33.09H160.6q-.56,0-1.08,0a3.5,3.5,0,0,1-.9-.15,1.26,1.26,0,0,1-.72-1,12,12,0,0,1-.09-1.55v-15c0-1.2,0-2.33-.12-3.41a5.64,5.64,0,0,0-.81-2.66,3.34,3.34,0,0,0-1.27-1.31,9.43,9.43,0,0,0-1.89-.74,1.41,1.41,0,0,0-.5,0,1.76,1.76,0,0,1-.55,0,2.42,2.42,0,0,0-1.31.12l-.25,0a1,1,0,0,1-.24,0,6,6,0,0,0-1.93,1.06,5.26,5.26,0,0,0-1.51,1.7,7,7,0,0,0-.75,2.17,17.67,17.67,0,0,0-.25,2.64c0,1,0,2,0,3.1v13.27a2.57,2.57,0,0,1-.18,1,1.18,1.18,0,0,1-.93.68,9,9,0,0,1-1.55.12h-3.23c-.41,0-.81,0-1.21,0a1.85,1.85,0,0,1-1-.28,1.23,1.23,0,0,1-.59-1.14q0-.84,0-1.77v-26.1c0-.46,0-.86,0-1.21a1.84,1.84,0,0,1,.28-.9,1.67,1.67,0,0,1,1-.5h.38a3.34,3.34,0,0,1,.65-.06h3.19q.49,0,1,0a3.48,3.48,0,0,1,.84.16,1,1,0,0,1,.65.62,8.59,8.59,0,0,1,.28,1,.68.68,0,0,1,0,.34.3.3,0,0,0,.09.28.74.74,0,0,0,.16.28l.21.22a1.49,1.49,0,0,0,1.25-.47,7.39,7.39,0,0,1,.92-.84,18.57,18.57,0,0,1,1.77-1.11,10,10,0,0,1,1.95-.81,6.65,6.65,0,0,1,1.12-.25c.37,0,.77-.1,1.18-.18a1.54,1.54,0,0,1,.56,0A1.08,1.08,0,0,0,155.7,104.46Z" transform="translate(-29.29 -25.02)"/>
  </g>
  <g>
    <path class="cls-3" d="M274.31,98.41a13.4,13.4,0,0,1,2.08,4.4,19,19,0,0,1,.47,5.83,15,15,0,0,1-.44,2.51,15.33,15.33,0,0,1-.74,2.14,4.8,4.8,0,0,0-.22.47,4.69,4.69,0,0,1-.22.46c-.16.29-.32.57-.46.84a4.4,4.4,0,0,1-.53.77,10.22,10.22,0,0,1-3,2.82,18.54,18.54,0,0,1-4,1.83,5.29,5.29,0,0,1-1.43.31,11,11,0,0,0-1.49.25,4.62,4.62,0,0,1-.74.06,3.81,3.81,0,0,0-.75.07h-9.45a2.29,2.29,0,0,0-1.4.37,1.73,1.73,0,0,0-.62,1.52v10.32c0,.5,0,1,0,1.61a2.48,2.48,0,0,1-.27,1.37A1.83,1.83,0,0,1,250,137a2.39,2.39,0,0,1-.93.06,8.22,8.22,0,0,0-1-.06h-3.6c-.45,0-.88,0-1.27,0a1.63,1.63,0,0,1-1-.34,1.36,1.36,0,0,1-.43-1,11.49,11.49,0,0,1-.07-1.33V97.3c0-.58,0-1.26,0-2a3.11,3.11,0,0,1,.28-1.67,1.83,1.83,0,0,1,.93-.62.44.44,0,0,1,.28,0,.34.34,0,0,0,.28,0h17.92q.56,0,1.11,0a3.33,3.33,0,0,1,1.06.1h.31a1.83,1.83,0,0,0,.68.12,1.87,1.87,0,0,1,.68.12,2.38,2.38,0,0,0,.56.07,1.61,1.61,0,0,1,.56.12c.66.21,1.32.4,2,.59a8,8,0,0,1,1.86.77,4.39,4.39,0,0,0,.68.44,4,4,0,0,1,.75.49,2.77,2.77,0,0,1,.52.41,6.76,6.76,0,0,0,.53.46l.37.37A10.08,10.08,0,0,1,274.31,98.41Zm-6.82,10.17a7.84,7.84,0,0,0,.1-1.71,8.2,8.2,0,0,0-.22-1.7,7.24,7.24,0,0,0-.93-2.17,5.48,5.48,0,0,0-1.67-1.49,7.46,7.46,0,0,0-2.3-.84,20.11,20.11,0,0,0-2.94-.34c-1.06,0-2.14,0-3.26,0l-3.16,0a1.81,1.81,0,0,1-.34.1,1.87,1.87,0,0,1-.34,0,1.3,1.3,0,0,0-.81.74,3.09,3.09,0,0,0-.25,1.33v9.06a2.68,2.68,0,0,0,.31,1.39,1.5,1.5,0,0,0,.75.56,3.77,3.77,0,0,0,1.11.22c.42,0,.86,0,1.34,0l1.33,0a55.11,55.11,0,0,0,6-.31,5.81,5.81,0,0,0,4.16-2.17A6.57,6.57,0,0,0,267,110C267.16,109.6,267.33,109.12,267.49,108.58Z" transform="translate(-29.29 -25.02)"/>
    <path class="cls-3" d="M300.35,104.3a4.88,4.88,0,0,1,1.21.13,1.38,1.38,0,0,1,.84.55,2.93,2.93,0,0,1,.37,1.71v2.14c0,.45,0,1,0,1.55a2.79,2.79,0,0,1-.22,1.36,1.11,1.11,0,0,1-.71.56,4.21,4.21,0,0,1-1.05.12c-.4,0-.81,0-1.24-.06a4,4,0,0,0-1.21.06,3.8,3.8,0,0,1-.87.16,3.42,3.42,0,0,0-.81.15,9.65,9.65,0,0,0-2,.9,5.31,5.31,0,0,0-1.55,1.34c-.21.33-.42.67-.65,1s-.44.71-.65,1.08-.24.68-.34,1-.2.69-.28,1a3.38,3.38,0,0,0-.13.9,3.37,3.37,0,0,1-.12.9,1.22,1.22,0,0,0,0,.46.93.93,0,0,1,0,.41v1a2.52,2.52,0,0,0-.06,1,9,9,0,0,1,.06,1V134c0,.54,0,1-.06,1.49a2.19,2.19,0,0,1-.38,1.11.68.68,0,0,1-.4.28,4.59,4.59,0,0,1-.59.16h-.31a3.51,3.51,0,0,1-.68.06h-3.35a4.72,4.72,0,0,0-.77-.06h-.84c-.21-.08-.41-.16-.62-.22a.64.64,0,0,1-.43-.4,1.53,1.53,0,0,1-.28-.9c0-.39,0-.8,0-1.21v-27.5a1.67,1.67,0,0,1,.25-1,1.32,1.32,0,0,1,.92-.62,8,8,0,0,1,1.49-.12H288a8.42,8.42,0,0,1,1.31.09,1.23,1.23,0,0,1,.87.59,2,2,0,0,1,.21.87q0,.56.09,1.08a5,5,0,0,0,.22,1,.59.59,0,0,0,.59.44.38.38,0,0,1,.25-.13.39.39,0,0,0,.25-.12,4,4,0,0,0,.65-.71,2.85,2.85,0,0,1,.71-.72,2.06,2.06,0,0,0,.43-.4,2.83,2.83,0,0,1,.44-.4c.37-.25.75-.5,1.15-.75s.79-.47,1.2-.68.84-.31,1.28-.43.87-.25,1.33-.37a1.94,1.94,0,0,1,.71,0A.93.93,0,0,0,300.35,104.3Z" transform="translate(-29.29 -25.02)"/>
    <path class="cls-3" d="M337.18,119.8a4.35,4.35,0,0,1,0,2.11v.62a3.33,3.33,0,0,0-.09,1,3.33,3.33,0,0,1-.09,1,5.83,5.83,0,0,0-.19.81q-.06.38-.12.81c-.17.45-.31.92-.44,1.39a6.76,6.76,0,0,1-.49,1.33,13.65,13.65,0,0,1-3.41,4.84,18.26,18.26,0,0,1-5.09,3.1,7.4,7.4,0,0,1-1.52.46c-.51.11-1,.22-1.58.35a1.87,1.87,0,0,1-.68.12,3.51,3.51,0,0,0-.68.06l-.41,0-.4,0a7.27,7.27,0,0,1-1,.1,2.81,2.81,0,0,1-1.05-.1h-.62a2.4,2.4,0,0,0-.66,0,1.45,1.45,0,0,1-.65-.09,1.94,1.94,0,0,0-.46-.06,2.86,2.86,0,0,1-.53-.06,11.24,11.24,0,0,0-1.24-.31,6,6,0,0,1-1.18-.38c-.49-.16-1-.33-1.39-.49a10.52,10.52,0,0,1-1.33-.62,15.77,15.77,0,0,1-3.72-3,15.28,15.28,0,0,1-2.61-4.15,4.74,4.74,0,0,1-.46-1.18c-.11-.41-.22-.85-.34-1.3a1.45,1.45,0,0,1-.13-.56,1.57,1.57,0,0,0-.12-.56,3.86,3.86,0,0,1-.13-1,4.4,4.4,0,0,0-.12-1,2.88,2.88,0,0,1-.06-.55v-.56a2.89,2.89,0,0,1-.1-1.06,4.15,4.15,0,0,1,.16-1.05v-.43a2.4,2.4,0,0,0,0-.66,1.45,1.45,0,0,1,.09-.65,3.06,3.06,0,0,0,.07-.59,1.58,1.58,0,0,1,.12-.58c.16-.54.31-1.07.43-1.59a10.27,10.27,0,0,1,.5-1.51,15.28,15.28,0,0,1,2.67-4.25,18.32,18.32,0,0,1,3.78-3.13,11.82,11.82,0,0,1,1.3-.56c.45-.17.91-.35,1.36-.56a8,8,0,0,1,1.68-.43,16,16,0,0,0,1.8-.37,6.19,6.19,0,0,1,.93-.07,6.33,6.33,0,0,0,.86-.06,20.11,20.11,0,0,1,6.23.75,16.53,16.53,0,0,1,4.69,2.23c.45.33.91.69,1.39,1.08a7.19,7.19,0,0,1,1.21,1.27c.33.42.63.83.9,1.24l.84,1.31a6.86,6.86,0,0,1,.68,1.45c.16.52.35,1.07.56,1.65a10,10,0,0,1,.31,1l.24,1.12a2.07,2.07,0,0,1,.07.49,2.14,2.14,0,0,0,.06.5,1.28,1.28,0,0,1,.06.68A1.27,1.27,0,0,0,337.18,119.8ZM328.5,122a5,5,0,0,0,.06-.9,4.92,4.92,0,0,0-.06-.89v-.5a1.87,1.87,0,0,1-.12-.68,3.51,3.51,0,0,0-.06-.68.92.92,0,0,0-.07-.38q-.12-.5-.21-1a7,7,0,0,0-.28-1,11.4,11.4,0,0,0-1.61-2.76,6.41,6.41,0,0,0-2.48-1.83c-.25-.08-.5-.16-.75-.22l-.8-.21a3.38,3.38,0,0,0-1.06-.1q-.56,0-1.11,0a.61.61,0,0,1-.44.1,1,1,0,0,0-.43,0l-.84.21a2.7,2.7,0,0,0-.71.28,6.21,6.21,0,0,0-2.51,2,10.1,10.1,0,0,0-1.52,2.94,7.9,7.9,0,0,0-.28,1.3c-.06.46-.14.91-.22,1.37a3.26,3.26,0,0,0-.06.62v.62a4.62,4.62,0,0,0-.09,1.3,6,6,0,0,0,.15,1.3v.56a9,9,0,0,1,.19,1,8.93,8.93,0,0,0,.18,1,14.63,14.63,0,0,0,1.34,3,6.57,6.57,0,0,0,2.26,2.08,4,4,0,0,0,1,.49,7.61,7.61,0,0,0,1.09.31,1.09,1.09,0,0,0,.43,0,1.09,1.09,0,0,1,.43,0,2.93,2.93,0,0,0,.53.1,1.55,1.55,0,0,0,.53,0h.49a6.78,6.78,0,0,1,1-.19,3.19,3.19,0,0,0,.93-.25,6.91,6.91,0,0,0,2.6-1.67,8.94,8.94,0,0,0,1.67-2.61,7.07,7.07,0,0,0,.38-1.24c.08-.41.18-.84.31-1.3a1.94,1.94,0,0,0,.06-.46,2,2,0,0,1,.06-.47v-.59A3.19,3.19,0,0,1,328.5,122Z" transform="translate(-29.29 -25.02)"/>
  </g>
</svg>
