<svg width="400" height="150" viewBox="0 0 400 150" fill="none" xmlns="http://www.w3.org/2000/svg">
<g clip-path="url(#clip0_693_26536)">
<path d="M383.338 150H15.986C11.7489 149.991 7.68784 148.3 4.69174 145.295C1.69565 142.291 0.00864536 138.218 2.45668e-05 133.969V16.1941C-0.0128626 14.0776 0.390644 11.9793 1.18744 10.0194C1.98425 8.05948 3.1587 6.27639 4.64357 4.77219C6.12844 3.26799 7.89457 2.07223 9.84086 1.25335C11.7872 0.434475 13.8754 0.00856437 15.986 0L383.338 0C387.575 0.0086448 391.637 1.70035 394.633 4.70478C397.629 7.70922 399.316 11.7816 399.324 16.0305V133.806C399.337 135.922 398.934 138.021 398.137 139.981C397.34 141.941 396.166 143.724 394.681 145.228C393.196 146.732 391.43 147.928 389.483 148.747C387.537 149.566 385.449 149.991 383.338 150V150Z" fill="#2600FF"/>
<path d="M117.611 99.7819C118.888 99.6616 120.175 99.8185 121.385 100.242C122.596 100.665 123.701 101.345 124.626 102.236C126.094 103.871 126.746 106.816 126.746 110.905C126.746 114.995 125.931 117.939 124.299 119.575C122.668 121.21 119.732 122.028 115.491 122.028C114.675 122.028 111.739 121.865 109.618 121.701C108.874 121.644 108.177 121.311 107.664 120.767C107.151 120.222 106.859 119.506 106.845 118.757V95.5289C106.839 95.2049 106.897 94.8828 107.018 94.5821C107.139 94.2814 107.319 94.0082 107.547 93.779C107.776 93.5498 108.048 93.3693 108.348 93.2484C108.648 93.1275 108.969 93.0686 109.292 93.0752C109.615 93.0686 109.937 93.1275 110.236 93.2484C110.536 93.3693 110.809 93.5498 111.037 93.779C111.266 94.0082 111.446 94.2814 111.566 94.5821C111.687 94.8828 111.746 95.2049 111.739 95.5289V101.091C113.587 100.256 115.585 99.8107 117.611 99.7819V99.7819ZM115.328 117.775C116.239 117.89 117.163 117.803 118.037 117.52C118.911 117.238 119.712 116.766 120.385 116.14C121.355 114.515 121.81 112.632 121.69 110.742C121.829 108.888 121.492 107.029 120.711 105.344C120.326 104.801 119.809 104.366 119.21 104.08C118.61 103.793 117.948 103.665 117.285 103.708C115.739 103.695 114.199 103.916 112.718 104.362L111.902 104.526V117.448C113.029 117.678 114.178 117.788 115.328 117.775V117.775Z" fill="white"/>
<path d="M132.782 100.273C133.312 100.257 133.831 100.429 134.249 100.758C134.666 101.086 134.955 101.551 135.066 102.072L139.47 117.285C139.532 117.428 139.634 117.551 139.765 117.637C139.895 117.723 140.048 117.769 140.204 117.769C140.36 117.769 140.513 117.723 140.643 117.637C140.774 117.551 140.876 117.428 140.938 117.285L145.342 102.072C145.502 101.579 145.805 101.145 146.212 100.824C146.618 100.504 147.11 100.312 147.626 100.273V100.273C148.004 100.263 148.378 100.345 148.717 100.512C149.057 100.679 149.351 100.925 149.575 101.23C149.799 101.535 149.947 101.89 150.005 102.264C150.063 102.639 150.031 103.022 149.91 103.381L142.406 129.062C142.259 129.549 141.955 129.974 141.542 130.27C141.129 130.566 140.63 130.716 140.122 130.698V130.698C139.748 130.696 139.38 130.607 139.046 130.437C138.712 130.268 138.423 130.022 138.201 129.72C137.979 129.418 137.831 129.068 137.768 128.698C137.705 128.328 137.729 127.949 137.839 127.59L139.633 122.028H138.654C137.769 122.039 136.905 121.756 136.197 121.224C135.489 120.691 134.977 119.939 134.739 119.084L130.172 103.217C130.133 102.848 130.172 102.476 130.285 102.123C130.398 101.77 130.583 101.444 130.829 101.167C131.075 100.89 131.375 100.668 131.711 100.514C132.048 100.359 132.412 100.277 132.782 100.273V100.273Z" fill="white"/>
<path d="M205.208 117.612L206.513 117.448V118.43C206.537 119.119 206.297 119.791 205.842 120.308C205.387 120.825 204.751 121.148 204.066 121.21C201.743 121.568 199.401 121.787 197.052 121.865C193.627 121.865 191.18 121.047 189.549 119.248C187.866 116.807 187.061 113.865 187.265 110.905C187.265 103.381 190.69 99.6183 197.378 99.6183C204.066 99.6183 207.166 102.89 207.166 109.433C207.092 110.332 206.68 111.17 206.014 111.777C205.348 112.385 204.477 112.716 203.577 112.704H192.485C192.433 113.413 192.522 114.124 192.746 114.798C192.97 115.472 193.325 116.095 193.79 116.63C195.086 117.643 196.723 118.112 198.357 117.939C200.641 117.939 202.925 117.775 205.208 117.612ZM202.435 109.269C202.625 107.705 202.217 106.127 201.293 104.853C200.801 104.374 200.21 104.009 199.562 103.783C198.914 103.557 198.224 103.475 197.542 103.544C196.86 103.487 196.174 103.574 195.527 103.8C194.881 104.025 194.289 104.384 193.79 104.853C192.875 106.137 192.416 107.692 192.485 109.269H202.435Z" fill="white"/>
<path d="M230.655 117.612V118.757C230.653 119.396 230.421 120.013 230.002 120.494C229.582 120.975 229.003 121.287 228.372 121.374C225.994 121.732 223.598 121.951 221.194 122.028C217.769 122.028 215.322 121.21 213.691 119.411C212.008 116.97 211.203 114.029 211.407 111.069C211.407 103.544 214.833 99.7819 221.521 99.7819C228.209 99.7819 231.308 103.053 231.308 109.597C231.234 110.496 230.822 111.334 230.156 111.941C229.49 112.548 228.619 112.879 227.719 112.868H216.627C216.575 113.576 216.664 114.288 216.888 114.962C217.112 115.636 217.467 116.258 217.932 116.794C219.228 117.807 220.865 118.276 222.499 118.103C223.152 118.103 230.655 117.612 230.655 117.612ZM226.414 109.269C226.604 107.705 226.196 106.127 225.272 104.853C224.78 104.374 224.189 104.009 223.541 103.783C222.893 103.557 222.203 103.475 221.521 103.544C220.839 103.487 220.153 103.574 219.506 103.8C218.86 104.025 218.268 104.384 217.769 104.853C216.854 106.137 216.395 107.692 216.464 109.269H226.414Z" fill="white"/>
<path d="M263.28 122.028C262.611 122.046 261.961 121.798 261.472 121.339C260.984 120.88 260.696 120.246 260.67 119.575V103.381C260.67 101.581 261.486 100.273 263.28 100.273C263.768 100.249 264.252 100.359 264.683 100.589C265.114 100.819 265.475 101.162 265.727 101.581C267.575 100.526 269.64 99.9108 271.762 99.7819C274.535 99.7819 276.493 100.436 277.635 101.908C280.247 100.517 283.159 99.7866 286.117 99.7819C287.206 99.6792 288.304 99.8328 289.324 100.23C290.343 100.628 291.256 101.258 291.99 102.072C293.366 104.507 293.99 107.296 293.784 110.087V119.575C293.784 120.225 293.526 120.85 293.067 121.31C292.608 121.77 291.986 122.028 291.337 122.028C290.688 122.028 290.066 121.77 289.607 121.31C289.148 120.85 288.89 120.225 288.89 119.575V110.251C288.977 108.575 288.699 106.9 288.075 105.344C287.733 104.806 287.242 104.381 286.663 104.119C286.083 103.857 285.44 103.771 284.812 103.871C283.258 103.919 281.719 104.194 280.245 104.689L279.429 105.016C279.804 106.79 279.914 108.609 279.755 110.414V119.575C279.774 119.902 279.724 120.229 279.608 120.536C279.492 120.842 279.312 121.12 279.081 121.352C278.85 121.584 278.572 121.764 278.267 121.88C277.961 121.997 277.635 122.047 277.309 122.028C276.639 122.046 275.99 121.798 275.501 121.339C275.012 120.88 274.724 120.246 274.699 119.575V110.578C274.794 108.795 274.517 107.012 273.883 105.344C273.541 104.806 273.051 104.381 272.471 104.119C271.891 103.857 271.248 103.771 270.621 103.871C268.934 103.8 267.256 104.137 265.727 104.853V119.411C265.765 119.75 265.729 120.093 265.622 120.417C265.515 120.741 265.339 121.038 265.106 121.287C264.874 121.536 264.59 121.731 264.275 121.859C263.959 121.987 263.62 122.045 263.28 122.028V122.028Z" fill="white"/>
<path d="M165.08 96.0196C165.706 95.8885 166.358 96.0017 166.904 96.336C167.449 96.6703 167.847 97.2007 168.016 97.819C168.506 99.2912 173.399 116.957 173.399 116.957C173.726 117.775 174.541 117.775 174.868 116.957L179.924 97.6554C180.071 97.1232 180.392 96.656 180.836 96.3295C181.28 96.003 181.821 95.8362 182.371 95.8561C182.747 95.8673 183.117 95.961 183.453 96.1307C183.789 96.3003 184.084 96.5417 184.317 96.8379C184.55 97.1342 184.716 97.478 184.803 97.8453C184.889 98.2126 184.894 98.5945 184.818 98.964L179.598 118.92C179.361 119.775 178.848 120.528 178.14 121.06C177.432 121.593 176.568 121.876 175.683 121.865H172.747C171.862 121.876 170.998 121.593 170.29 121.06C169.582 120.528 169.069 119.775 168.832 118.92C168.832 118.92 163.612 100.927 163.123 99.1276C163.041 98.7943 163.027 98.448 163.082 98.1092C163.137 97.7705 163.26 97.4464 163.442 97.1562C163.625 96.8661 163.864 96.6159 164.146 96.4206C164.427 96.2253 164.745 96.0889 165.08 96.0196V96.0196Z" fill="white"/>
<path d="M253.982 106.816V116.467C254.014 116.941 254.184 117.396 254.471 117.775C254.894 118.12 255.401 118.346 255.939 118.43V119.411C255.869 120.081 255.539 120.697 255.021 121.126C254.502 121.554 253.836 121.761 253.166 121.701C251.927 121.586 250.743 121.133 249.741 120.393C247.363 121.402 244.818 121.957 242.237 122.028C237.67 122.028 235.223 119.738 235.223 115.322C235.149 114.432 235.288 113.537 235.629 112.712C235.969 111.887 236.501 111.155 237.18 110.578C238.958 109.498 240.977 108.879 243.053 108.779L249.088 108.288V106.816C249.168 106.375 249.137 105.922 248.998 105.497C248.859 105.071 248.617 104.687 248.294 104.379C247.97 104.071 247.575 103.848 247.144 103.731C246.713 103.614 246.26 103.606 245.826 103.708C244.247 103.678 242.668 103.732 241.095 103.871C240.769 103.871 236.854 104.198 236.854 104.198V102.89C236.834 102.338 237.001 101.796 237.326 101.35C237.652 100.905 238.118 100.583 238.648 100.436C241.056 99.8945 243.524 99.6745 245.989 99.7819C248.183 99.5817 250.377 100.161 252.188 101.418C252.827 102.154 253.315 103.01 253.623 103.937C253.931 104.863 254.053 105.842 253.982 106.816V106.816ZM243.542 112.05C243.107 112.024 242.671 112.091 242.263 112.246C241.856 112.401 241.485 112.641 241.177 112.95C240.869 113.259 240.629 113.631 240.475 114.039C240.32 114.448 240.254 114.885 240.28 115.322C240.28 117.285 241.258 118.266 243.053 118.266C244.701 118.208 246.34 117.989 247.946 117.612C248.225 117.52 248.497 117.411 248.762 117.285V111.559L243.542 112.05Z" fill="white"/>
<path d="M166.548 69.8474C165.999 69.8469 165.455 69.9579 164.949 70.1735C164.443 70.3892 163.986 70.7051 163.605 71.1024C163.225 71.4996 162.928 71.9699 162.733 72.4851C162.537 73.0003 162.448 73.5497 162.47 74.1003C162.472 75.2888 162.874 76.4418 163.612 77.3719C163.973 77.7406 164.405 78.0322 164.882 78.2289C165.358 78.4257 165.87 78.5237 166.385 78.5169H187.591C189.405 78.5955 191.216 78.3005 192.912 77.6503C194.608 77 196.153 76.0083 197.453 74.7362C198.752 73.4641 199.777 71.9386 200.466 70.2538C201.154 68.569 201.492 66.7605 201.457 64.94C201.493 63.11 201.166 61.291 200.495 59.589C199.823 57.8869 198.821 56.336 197.545 55.0266C196.27 53.7172 194.747 52.6755 193.066 51.9623C191.385 51.2491 189.579 50.8786 187.754 50.8724H174.704C171.279 50.8724 168.995 48.9095 168.995 45.9651C168.995 43.0207 171.279 40.8942 174.704 40.8942H195.747C196.306 40.8775 196.855 40.7494 197.364 40.5174C197.872 40.2854 198.33 39.9543 198.709 39.5431C199.089 39.132 199.383 38.6492 199.575 38.1229C199.766 37.5966 199.852 37.0373 199.825 36.4777C199.847 35.927 199.758 35.3776 199.563 34.8624C199.368 34.3472 199.071 33.8769 198.69 33.4797C198.309 33.0824 197.852 32.7665 197.346 32.5508C196.841 32.3352 196.297 32.2242 195.747 32.2247H174.541C170.929 32.2247 167.464 33.6637 164.91 36.2252C162.356 38.7867 160.921 42.2608 160.921 45.8833C160.921 49.5058 162.356 52.98 164.91 55.5415C167.464 58.103 170.929 59.542 174.541 59.542H187.428C188.167 59.4744 188.912 59.565 189.613 59.8079C190.314 60.0507 190.956 60.4403 191.496 60.9507C192.036 61.4611 192.461 62.0807 192.744 62.7684C193.027 63.4562 193.161 64.1964 193.137 64.94C193.137 68.048 191.017 70.0109 187.428 70.0109L166.548 69.8474V69.8474Z" fill="white"/>
<path d="M249.741 36.3141C249.674 37.4769 249.161 38.5687 248.31 39.3613C247.459 40.1539 246.335 40.5859 245.173 40.5671H232.45V73.9368C232.45 75.1515 231.969 76.3165 231.112 77.1754C230.256 78.0344 229.094 78.5169 227.882 78.5169C226.671 78.5169 225.509 78.0344 224.653 77.1754C223.796 76.3165 223.315 75.1515 223.315 73.9368V40.5671H210.591C209.43 40.5859 208.306 40.1539 207.455 39.3613C206.604 38.5687 206.091 37.4769 206.024 36.3141C206.091 35.1513 206.604 34.0595 207.455 33.2669C208.306 32.4743 209.43 32.0423 210.591 32.0611H245.01C245.601 32.0213 246.194 32.1004 246.754 32.2939C247.313 32.4874 247.829 32.7912 248.27 33.1876C248.71 33.5839 249.068 34.0647 249.32 34.6017C249.573 35.1386 249.716 35.7209 249.741 36.3141V36.3141Z" fill="white"/>
<path d="M296.068 74.4275C296 75.5904 295.488 76.6822 294.637 77.4747C293.785 78.2673 292.662 78.6993 291.5 78.6805H266.542C265.113 78.7026 263.688 78.5377 262.301 78.1898C261.552 77.9628 260.839 77.6325 260.181 77.2083C259.022 76.4282 258.063 75.3844 257.382 74.162C256.702 72.9397 256.319 71.5734 256.266 70.1745V70.1745V59.2149C256.229 57.7758 256.572 56.3525 257.259 55.0888C257.946 53.825 258.954 52.7656 260.181 52.0175C260.855 51.6236 261.565 51.295 262.301 51.036C263.691 50.7185 265.12 50.6083 266.542 50.7089H291.5C292.088 50.6571 292.681 50.7286 293.24 50.9188C293.799 51.109 294.313 51.4138 294.748 51.8137C295.184 52.2137 295.531 52.7001 295.769 53.2421C296.007 53.7841 296.13 54.3697 296.13 54.9619C296.13 55.554 296.007 56.1397 295.769 56.6816C295.531 57.2236 295.184 57.71 294.748 58.11C294.313 58.51 293.799 58.8147 293.24 59.005C292.681 59.1952 292.088 59.2666 291.5 59.2149H267.847C266.216 59.2149 264.911 59.7056 264.911 61.6685V67.7209C264.982 68.4344 265.329 69.0917 265.878 69.5507C266.428 70.0098 267.135 70.2338 267.847 70.1745H291.5C292.079 70.1504 292.657 70.2416 293.201 70.4428C293.745 70.6439 294.243 70.9511 294.668 71.3465C295.092 71.7419 295.435 72.2178 295.675 72.7466C295.915 73.2754 296.049 73.8467 296.068 74.4275V74.4275ZM291.337 32.0611H260.833C259.672 32.0423 258.548 32.4743 257.697 33.2669C256.846 34.0595 256.333 35.1513 256.266 36.3141C256.333 37.4769 256.846 38.5687 257.697 39.3613C258.548 40.1539 259.672 40.5859 260.833 40.5671H291.5C292.662 40.5859 293.785 40.1539 294.637 39.3613C295.488 38.5687 296 37.4769 296.068 36.3141C295.961 35.1371 295.413 34.0443 294.536 33.2553C293.658 32.4663 292.516 32.0397 291.337 32.0611V32.0611Z" fill="white"/>
<path d="M64.1072 36.6412V73.9367C64.1072 75.1515 63.626 76.3164 62.7695 77.1754C61.9129 78.0343 60.7511 78.5169 59.5398 78.5169C58.3284 78.5169 57.1667 78.0343 56.3101 77.1754C55.4536 76.3164 54.9724 75.1515 54.9724 73.9367V36.6412C54.9724 35.4265 55.4536 34.2615 56.3101 33.4026C57.1667 32.5436 58.3284 32.0611 59.5398 32.0611C60.7511 32.0611 61.9129 32.5436 62.7695 33.4026C63.626 34.2615 64.1072 35.4265 64.1072 36.6412V36.6412Z" fill="white"/>
<path d="M79.4407 55.289L96.8949 40.2399C97.7275 39.5369 98.295 38.5692 98.5027 37.4977C98.7105 36.4263 98.546 35.3158 98.0367 34.3511C97.7033 33.7564 97.2437 33.2423 96.6904 32.8451C96.1371 32.4479 95.5036 32.1774 94.8347 32.0526C94.1657 31.9278 93.4776 31.9518 92.8189 32.1228C92.1602 32.2939 91.5469 32.6078 91.0225 33.0425L66.8803 53.9804C66.6911 54.1237 66.5376 54.3091 66.432 54.522C66.3263 54.7349 66.2713 54.9694 66.2713 55.2072C66.2713 55.445 66.3263 55.6795 66.432 55.8924C66.5376 56.1053 66.6911 56.2907 66.8803 56.434L90.8593 77.2083C91.6535 77.9277 92.6694 78.3525 93.7379 78.412C94.8064 78.4716 95.863 78.1622 96.7317 77.5354C97.2582 77.1194 97.6865 76.5919 97.9861 75.9906C98.2857 75.3893 98.4491 74.729 98.4647 74.0571C98.4802 73.3851 98.3476 72.7179 98.0763 72.1033C97.8049 71.4887 97.4015 70.9418 96.8949 70.5016L79.4407 55.289Z" fill="white"/>
<path d="M345.82 36.6412V70.0109C345.82 75.2454 343.373 78.6805 338.806 78.6805C333.912 78.6805 332.118 75.7361 330.16 72.9553L311.727 43.5114V74.1003C311.717 74.7018 311.588 75.2953 311.349 75.8468C311.109 76.3984 310.764 76.8973 310.332 77.315C309.9 77.7327 309.391 78.0611 308.833 78.2813C308.274 78.5016 307.678 78.6094 307.078 78.5987C306.479 78.5879 305.887 78.4588 305.337 78.2187C304.787 77.9786 304.289 77.6323 303.873 77.1994C303.456 76.7665 303.129 76.2555 302.909 75.6957C302.689 75.1359 302.582 74.5382 302.593 73.9367V40.7306C302.527 39.643 302.678 38.5532 303.038 37.5251C303.398 36.4969 303.959 35.5513 304.688 34.7437C305.418 33.936 306.301 33.2827 307.285 32.822C308.27 32.3614 309.337 32.1026 310.422 32.0611C311.939 32.2002 313.403 32.6852 314.704 33.479C316.004 34.2729 317.106 35.3545 317.926 36.6412C318.089 36.9684 336.848 66.9029 336.848 66.9029V36.4776C336.938 35.3233 337.458 34.2451 338.304 33.4572C339.15 32.6693 340.261 32.2293 341.416 32.2246C342.577 32.2456 343.685 32.7177 344.507 33.5415C345.328 34.3652 345.799 35.4764 345.82 36.6412V36.6412Z" fill="white"/>
<path d="M155.293 71.3195L139.633 38.277C139.038 36.3889 137.834 34.7531 136.209 33.6276C134.585 32.5021 132.633 31.951 130.661 32.0611C128.73 32.045 126.841 32.6358 125.262 33.7506C123.682 34.8654 122.49 36.4482 121.853 38.277L106.356 70.6652C103.257 76.3904 108.477 78.5169 109.945 78.3533C110.859 78.3248 111.746 78.0317 112.499 77.5093C113.251 76.9869 113.837 76.2575 114.186 75.409C114.838 73.9368 118.264 66.7394 118.264 66.7394H130.661C131.24 66.7204 131.81 66.5866 132.338 66.3457C132.865 66.1048 133.339 65.7615 133.734 65.3356C134.128 64.9098 134.434 64.4099 134.635 63.8647C134.836 63.3195 134.926 62.7398 134.902 62.1592C134.921 60.9946 134.49 59.8677 133.7 59.0142C132.91 58.1606 131.821 57.6464 130.661 57.5791H122.505L129.683 42.8572V42.6936C129.82 42.3192 130.043 41.9829 130.335 41.7121H130.988C131.383 41.988 131.671 42.3925 131.803 42.8572L147.3 75.409C147.604 76.0263 148.035 76.5725 148.564 77.0118C149.093 77.4512 149.709 77.7739 150.37 77.9591C151.032 78.1443 151.725 78.1877 152.405 78.0865C153.084 77.9853 153.735 77.7418 154.314 77.3719C155.22 76.6814 155.827 75.6682 156.009 74.5418C156.191 73.4153 155.935 72.2618 155.293 71.3195V71.3195Z" fill="white"/>
</g>
<defs>
<clipPath id="clip0_693_26536">
<rect width="399.324" height="150" fill="white"/>
</clipPath>
</defs>
</svg>
