<?xml version="1.0" encoding="utf-8"?>
<!-- Generator: Adobe Illustrator 25.2.3, SVG Export Plug-In . SVG Version: 6.00 Build 0)  -->
<svg version="1.1" id="Layer_1" xmlns="http://www.w3.org/2000/svg" xmlns:xlink="http://www.w3.org/1999/xlink" x="0px" y="0px"
	 viewBox="0 0 377 95.9" style="enable-background:new 0 0 377 95.9;" xml:space="preserve">
<style type="text/css">
	.st0{fill:#FF9FBD;}
	.st1{fill:#039B49;}
	.st2{fill:#121C21;}
	.st3{clip-path:url(#SVGID_2_);}
	.st4{clip-path:url(#SVGID_4_);fill-rule:evenodd;clip-rule:evenodd;}
	.st5{clip-path:url(#SVGID_4_);}
	.st6{fill:#FFFFFF;}
	.st7{clip-path:url(#SVGID_6_);}
	.st8{clip-path:url(#SVGID_8_);fill-rule:evenodd;clip-rule:evenodd;fill:#FFFFFF;}
	.st9{clip-path:url(#SVGID_8_);fill:#FFFFFF;}
	.st10{fill:#86ED78;}
	.st11{clip-path:url(#SVGID_10_);}
	.st12{clip-path:url(#SVGID_12_);fill-rule:evenodd;clip-rule:evenodd;}
	.st13{clip-path:url(#SVGID_12_);}
	.st14{fill:#4F52BC;}
	.st15{clip-path:url(#SVGID_14_);}
	.st16{clip-path:url(#SVGID_16_);fill-rule:evenodd;clip-rule:evenodd;}
	.st17{clip-path:url(#SVGID_16_);}
	.st18{fill:#E7F6E9;}
	.st19{clip-path:url(#SVGID_18_);}
	.st20{clip-path:url(#SVGID_20_);fill-rule:evenodd;clip-rule:evenodd;}
	.st21{clip-path:url(#SVGID_20_);}
	.st22{clip-path:url(#SVGID_22_);}
	.st23{clip-path:url(#SVGID_24_);fill-rule:evenodd;clip-rule:evenodd;}
	.st24{clip-path:url(#SVGID_24_);}
	.st25{fill:#5274FF;}
	.st26{fill:#FB7785;}
	.st27{fill:#FBA722;}
	.st28{clip-path:url(#SVGID_26_);}
	.st29{clip-path:url(#SVGID_28_);fill-rule:evenodd;clip-rule:evenodd;}
	.st30{clip-path:url(#SVGID_28_);}
	.st31{clip-path:url(#SVGID_30_);}
	.st32{clip-path:url(#SVGID_32_);fill-rule:evenodd;clip-rule:evenodd;}
	.st33{clip-path:url(#SVGID_32_);}
	.st34{clip-path:url(#SVGID_34_);}
	.st35{clip-path:url(#SVGID_36_);fill-rule:evenodd;clip-rule:evenodd;}
	.st36{clip-path:url(#SVGID_36_);}
	.st37{clip-path:url(#SVGID_38_);}
	.st38{clip-path:url(#SVGID_40_);fill-rule:evenodd;clip-rule:evenodd;}
	.st39{clip-path:url(#SVGID_40_);}
	.st40{clip-path:url(#SVGID_42_);}
	.st41{clip-path:url(#SVGID_44_);fill-rule:evenodd;clip-rule:evenodd;fill:#FFFFFF;}
	.st42{clip-path:url(#SVGID_44_);fill:#FFFFFF;}
	.st43{clip-path:url(#SVGID_46_);}
	.st44{clip-path:url(#SVGID_48_);fill-rule:evenodd;clip-rule:evenodd;fill:#FFFFFF;}
	.st45{clip-path:url(#SVGID_48_);fill:#FFFFFF;}
	.st46{fill:#0178C5;}
	.st47{fill:#FF9DBD;}
	.st48{fill:#FFC40C;}
	.st49{clip-path:url(#SVGID_50_);}
	.st50{clip-path:url(#SVGID_52_);fill-rule:evenodd;clip-rule:evenodd;}
	.st51{clip-path:url(#SVGID_52_);}
	.st52{clip-path:url(#SVGID_54_);}
	.st53{clip-path:url(#SVGID_56_);fill-rule:evenodd;clip-rule:evenodd;}
	.st54{clip-path:url(#SVGID_56_);}
	.st55{clip-path:url(#SVGID_58_);}
	.st56{clip-path:url(#SVGID_60_);fill-rule:evenodd;clip-rule:evenodd;}
	.st57{clip-path:url(#SVGID_60_);}
	.st58{clip-path:url(#SVGID_62_);}
	.st59{clip-path:url(#SVGID_64_);fill-rule:evenodd;clip-rule:evenodd;}
	.st60{clip-path:url(#SVGID_64_);}
	.st61{clip-path:url(#SVGID_66_);}
	.st62{clip-path:url(#SVGID_68_);fill-rule:evenodd;clip-rule:evenodd;fill:#FFFFFF;}
	.st63{clip-path:url(#SVGID_68_);fill:#FFFFFF;}
	.st64{clip-path:url(#SVGID_70_);}
	.st65{clip-path:url(#SVGID_72_);fill-rule:evenodd;clip-rule:evenodd;fill:#FFFFFF;}
	.st66{clip-path:url(#SVGID_72_);fill:#FFFFFF;}
	.st67{clip-path:url(#SVGID_74_);}
	.st68{clip-path:url(#SVGID_76_);fill-rule:evenodd;clip-rule:evenodd;}
	.st69{clip-path:url(#SVGID_76_);}
	.st70{clip-path:url(#SVGID_78_);}
	.st71{clip-path:url(#SVGID_80_);fill-rule:evenodd;clip-rule:evenodd;}
	.st72{clip-path:url(#SVGID_80_);}
	.st73{clip-path:url(#SVGID_82_);}
	.st74{clip-path:url(#SVGID_84_);fill-rule:evenodd;clip-rule:evenodd;}
	.st75{clip-path:url(#SVGID_84_);}
	.st76{clip-path:url(#SVGID_86_);}
	.st77{clip-path:url(#SVGID_88_);fill-rule:evenodd;clip-rule:evenodd;fill:#FFFFFF;}
	.st78{clip-path:url(#SVGID_88_);fill:#FFFFFF;}
	.st79{clip-path:url(#SVGID_90_);}
	.st80{clip-path:url(#SVGID_92_);fill-rule:evenodd;clip-rule:evenodd;fill:#FFFFFF;}
	.st81{clip-path:url(#SVGID_92_);fill:#FFFFFF;}
	.st82{clip-path:url(#SVGID_94_);}
	.st83{clip-path:url(#SVGID_96_);fill-rule:evenodd;clip-rule:evenodd;fill:#FFFFFF;}
	.st84{clip-path:url(#SVGID_96_);fill:#FFFFFF;}
	.st85{clip-path:url(#SVGID_98_);}
	.st86{clip-path:url(#SVGID_100_);fill-rule:evenodd;clip-rule:evenodd;}
	.st87{clip-path:url(#SVGID_100_);}
	.st88{clip-path:url(#SVGID_102_);}
	.st89{clip-path:url(#SVGID_104_);fill-rule:evenodd;clip-rule:evenodd;}
	.st90{clip-path:url(#SVGID_104_);}
	.st91{clip-path:url(#SVGID_106_);}
	.st92{clip-path:url(#SVGID_108_);fill-rule:evenodd;clip-rule:evenodd;}
	.st93{clip-path:url(#SVGID_108_);}
	.st94{clip-path:url(#SVGID_110_);}
	.st95{clip-path:url(#SVGID_112_);fill-rule:evenodd;clip-rule:evenodd;fill:#FFFFFF;}
	.st96{clip-path:url(#SVGID_112_);fill:#FFFFFF;}
	.st97{clip-path:url(#SVGID_114_);}
	.st98{clip-path:url(#SVGID_116_);fill-rule:evenodd;clip-rule:evenodd;fill:#FFFFFF;}
	.st99{clip-path:url(#SVGID_116_);fill:#FFFFFF;}
	.st100{clip-path:url(#SVGID_118_);}
	.st101{clip-path:url(#SVGID_120_);fill-rule:evenodd;clip-rule:evenodd;fill:#FFFFFF;}
	.st102{clip-path:url(#SVGID_120_);fill:#FFFFFF;}
	.st103{clip-path:url(#SVGID_122_);}
	.st104{clip-path:url(#SVGID_124_);fill-rule:evenodd;clip-rule:evenodd;fill:#FFFFFF;}
	.st105{clip-path:url(#SVGID_124_);fill:#FFFFFF;}
	.st106{clip-path:url(#SVGID_126_);}
	.st107{clip-path:url(#SVGID_128_);fill-rule:evenodd;clip-rule:evenodd;fill:#FFFFFF;}
	.st108{clip-path:url(#SVGID_128_);fill:#FFFFFF;}
	.st109{fill:#161D23;}
	.st110{clip-path:url(#SVGID_130_);}
	.st111{clip-path:url(#SVGID_132_);fill-rule:evenodd;clip-rule:evenodd;fill:#FFFFFF;}
	.st112{clip-path:url(#SVGID_132_);fill:#FFFFFF;}
	.st113{fill:#232639;}
	.st114{clip-path:url(#SVGID_134_);}
	.st115{clip-path:url(#SVGID_136_);fill-rule:evenodd;clip-rule:evenodd;fill:#FFFFFF;}
	.st116{clip-path:url(#SVGID_136_);fill:#FFFFFF;}
	.st117{fill:#1A2042;}
	.st118{clip-path:url(#SVGID_138_);}
	.st119{clip-path:url(#SVGID_140_);fill-rule:evenodd;clip-rule:evenodd;fill:#FFFFFF;}
	.st120{clip-path:url(#SVGID_140_);fill:#FFFFFF;}
	.st121{clip-path:url(#SVGID_142_);}
	.st122{clip-path:url(#SVGID_144_);fill-rule:evenodd;clip-rule:evenodd;fill:#FFFFFF;}
	.st123{clip-path:url(#SVGID_144_);fill:#FFFFFF;}
	.st124{clip-path:url(#SVGID_146_);}
	.st125{clip-path:url(#SVGID_148_);fill-rule:evenodd;clip-rule:evenodd;}
	.st126{clip-path:url(#SVGID_148_);}
	.st127{fill:#FFFFFF;stroke:#000000;stroke-miterlimit:10;}
	.st128{clip-path:url(#SVGID_150_);}
	.st129{clip-path:url(#SVGID_152_);fill-rule:evenodd;clip-rule:evenodd;}
	.st130{clip-path:url(#SVGID_152_);}
</style>
<g>
	<path class="st1" d="M56.4,56.2c7.7,0,13.9-6.2,13.9-13.9c0-7.7-6.2-13.9-13.9-13.9c-7.7,0-13.9,6.2-13.9,13.9
		C42.6,50,48.8,56.2,56.4,56.2z"/>
	<path class="st2" d="M52.6,0.1L7.4,24.3C7.1,24.4,7.1,24.7,7,25L0,56c-0.1,0.5,0.1,0.8,0.6,1l58.6,27.6c0.4,0.2,0.8,0.2,1.2,0
		L98,67.6c0.4-0.2,0.6-0.6,0.7-0.9l13.8-62c0.1-0.5-0.2-1-0.7-1.1h-0.1L53.4,0.1C53.1-0.1,52.8,0,52.6,0.1z M59.4,83L4.6,57.2h20.3
		L70,63.6L59.4,83z M71.8,63.8l23.1,3.3L61.6,82.2L71.8,63.8z M26.2,55.6l17.2-33.8l53-6.1L70.9,62L26.2,55.6z M97.6,13.9L44.3,20
		l9.3-18.3L109.4,5L97.6,13.9z M42.3,20.3L12,23.8l39.2-21L42.3,20.3z M8.4,25.8l33-3.8l-17,33.4H1.8L8.4,25.8z M97.2,65.8
		l-24.6-3.5l25.9-47.1l11.9-9L97.2,65.8z"/>
	<g>
		<path class="st2" d="M148.5,49h15.3v7.1h-24.1V17.9h8.9L148.5,49L148.5,49z M172.7,15.2c-2.8,0-5.1,2.3-5.1,5.1
			c0,2.8,2.3,5.1,5.1,5.1c2.8,0,5.1-2.3,5.1-5.1C177.8,17.5,175.6,15.2,172.7,15.2z M168.7,56.2h8.3V28.5h-8.3V56.2z M203.1,28.5
			h7.8v25.3c0,9.3-5.5,15.1-14.3,15.1c-8.1,0-13.6-4.3-13.8-11.2l8.3-0.3c0.2,3,2.3,4.7,5.2,4.7c4,0,6.2-2.6,6.2-7.2v-4.3
			c-1.2,2.3-3.9,4.3-7.7,4.3c-7.5,0-13.3-5.5-13.3-13.5c0-7.6,5.5-13.6,13.5-13.6c3.6,0,6.9,2,8.1,4.7V28.5z M203,41.3
			c0-3.9-2.7-6.7-6.7-6.7c-3.8,0-6.6,2.7-6.6,6.7c0,3.8,2.7,6.7,6.6,6.7C200.3,47.8,203,45.1,203,41.3z M232.4,27.9
			c-3.4-0.1-6.6,1.9-7.9,5.2V18h-8.4v38.3h8.4V40.9c0-4,1.8-6.2,5-6.2c3.1,0,4.9,2.1,4.9,5.8v15.7h8.3v-17
			C242.8,32.5,238.7,27.9,232.4,27.9z M258.3,21.9H250v6.6h-4.6v6.6h4.6v10.7c0,7,4.3,10.4,9.8,10.4h4.1l-0.1-7H262
			c-2.6,0-3.7-1.3-3.7-3.8V35.2h5.8v-6.6h-5.8V21.9z M306.9,21.9h-8.2v6.6h-4.6v6.6h4.6v10.6c0,7,4.3,10.4,9.8,10.4h4.1l-0.1-7h-1.8
			c-2.5,0-3.7-1.3-3.7-3.8V35.1h5.8v-6.6h-5.8V21.9z M377,42.4c0,8.5-5.5,14.4-13.3,14.4c-3.2,0.1-6.2-1.5-8-4.2v14h-8.3V28.5h8.3
			v3.9c1.4-2.8,4.8-4.4,8-4.4C371.5,27.9,377,33.9,377,42.4z M368.6,42.4c0-4.4-2.8-7.6-6.7-7.6c-4,0-6.7,3.1-6.7,7.6
			s2.8,7.6,6.7,7.6C365.9,49.9,368.6,46.9,368.6,42.4z M343.6,42.1c0,0.9-0.1,1.8-0.2,2.6H324c0.2,3.5,2.7,6,6.1,6
			c2.8,0,4.6-1.1,5.5-3.3l7,1.3c-1.2,5-6.3,8.4-12.8,8.4c-8.5,0-14.5-6.1-14.5-14.6c0-8.6,5.8-14.7,14.2-14.7
			C337.9,27.7,343.6,33.6,343.6,42.1z M335.4,39.6c0-3.1-2.3-5.5-5.7-5.5c-3.1,0-5.5,2.2-5.6,5.5H335.4z M282.3,39l-3.7-0.6
			c-1.7-0.3-2.6-1.1-2.6-2.3c0-1.6,1.6-2.8,3.5-2.8c2.4,0,4.1,1.5,4.3,3.8l7.6-0.2c-0.3-5.5-5-9.4-11.9-9.4c-6.7,0-11.6,4-11.6,9.5
			c0,4.8,2.8,7.7,8.8,8.6l3.7,0.6c2.4,0.4,3.6,1,3.6,2.7c0,1.6-1.6,2.5-4,2.5c-2.9,0-4.7-1.5-4.9-3.8l-7.7,0.2
			c0.2,5.5,5.4,9.4,12.6,9.4c7.1,0,12.1-3.8,12.1-9.3C292.2,43.2,288.8,40,282.3,39z"/>
	</g>
	<g>
		<path class="st2" d="M143.3,84.7v0.3h2.8v1.8h-2.8v8.8h-1.8v-8.8h-1.7v-1.8h1.7v-0.3c0-2.8,1.6-4.4,4.6-4.2v1.8
			C144.2,82.2,143.3,82.9,143.3,84.7z"/>
		<path class="st2" d="M152.8,84.9v1.9c-1.6-0.1-3.3,0.7-3.3,3.2v5.6h-1.8V85.1h1.8v1.8C150.2,85.4,151.5,84.9,152.8,84.9z"/>
		<path class="st2" d="M153.6,90.3c0-3.1,2.5-5.6,5.6-5.6c3.1,0,5.6,2.4,5.6,5.6s-2.5,5.6-5.6,5.6C156.1,95.9,153.6,93.5,153.6,90.3
			z M162.9,90.3c0-2.1-1.6-3.8-3.7-3.8c-2.1,0-3.7,1.6-3.7,3.8s1.6,3.8,3.7,3.8C161.3,94.1,162.9,92.5,162.9,90.3z"/>
		<path class="st2" d="M182.6,89.1v6.6h-1.8v-6.5c0-1.7-0.9-2.6-2.3-2.6c-1.5,0-2.6,0.9-2.6,3.2v5.9H174v-6.5c0-1.7-0.9-2.6-2.2-2.6
			c-1.4,0-2.7,0.9-2.7,3.2v5.9h-1.8V85.1h1.8v1.4c0.8-1.2,1.9-1.7,3.1-1.7c1.4,0,2.5,0.7,3.1,1.8c0.7-1.2,1.9-1.8,3.3-1.8
			C180.9,84.8,182.6,86.4,182.6,89.1z"/>
		<path class="st2" d="M190.2,92.3l1.7-1c0.5,1.6,1.8,2.7,4,2.7c2.1,0,3.1-1,3.1-2.3c0-1.5-1.3-2-3.5-2.7c-2.4-0.8-4.7-1.5-4.7-4.2
			c0-2.7,2.2-4.2,4.7-4.2c2.4,0,4.2,1.4,5,3.2l-1.6,1c-0.5-1.3-1.6-2.3-3.4-2.3c-1.6,0-2.7,0.8-2.7,2.2c0,1.4,1,1.9,3.1,2.5
			c2.6,0.8,5,1.6,5,4.5c0,2.6-2.1,4.2-5.1,4.2C193,95.9,191,94.5,190.2,92.3z"/>
		<path class="st2" d="M208.6,94.2c1.5,0,2.5-0.7,3-1.5l1.6,0.9c-0.9,1.4-2.5,2.4-4.7,2.4c-3.4,0-5.7-2.4-5.7-5.6
			c0-3.1,2.2-5.6,5.5-5.6c3.2,0,5.3,2.6,5.3,5.6c0,0.3,0,0.6-0.1,0.8h-8.9C205.1,93.1,206.6,94.2,208.6,94.2z M204.8,89.6h7.1
			c-0.3-2.1-1.8-3.1-3.4-3.1C206.4,86.5,205.1,87.7,204.8,89.6z"/>
		<path class="st2" d="M221.2,84.9v1.9c-1.6-0.1-3.3,0.7-3.3,3.2v5.6H216V85.1h1.8v1.8C218.5,85.4,219.8,84.9,221.2,84.9z"/>
		<path class="st2" d="M232.5,85.1l-4.2,10.6h-2.2l-4.2-10.6h2l3.3,8.6l3.3-8.6H232.5z"/>
		<path class="st2" d="M234,81.9c0-0.7,0.5-1.2,1.2-1.2c0.7,0,1.2,0.6,1.2,1.2c0,0.7-0.5,1.2-1.2,1.2C234.6,83.1,234,82.6,234,81.9z
			 M234.3,85.1h1.8v10.6h-1.8V85.1z"/>
		<path class="st2" d="M238.6,90.3c0-3.1,2.4-5.6,5.6-5.6c2.1,0,3.9,1.1,4.7,2.8l-1.5,0.9c-0.5-1.1-1.7-1.9-3.1-1.9
			c-2.1,0-3.7,1.6-3.7,3.8c0,2.1,1.6,3.7,3.7,3.7c1.4,0,2.6-0.7,3.2-1.8l1.6,0.9c-0.9,1.6-2.7,2.7-4.8,2.7
			C241,95.9,238.6,93.5,238.6,90.3z"/>
		<path class="st2" d="M255.9,94.2c1.5,0,2.5-0.7,3-1.5l1.6,0.9c-0.9,1.4-2.5,2.4-4.7,2.4c-3.4,0-5.7-2.4-5.7-5.6
			c0-3.1,2.2-5.6,5.5-5.6c3.2,0,5.3,2.6,5.3,5.6c0,0.3,0,0.6-0.1,0.8h-8.9C252.4,93.1,253.9,94.2,255.9,94.2z M252.1,89.6h7.1
			c-0.3-2.1-1.8-3.1-3.4-3.1C253.7,86.5,252.4,87.7,252.1,89.6z"/>
		<path class="st2" d="M274.7,80.8v14.8h-1.6l-7.6-11.1v11.1h-2V80.8h1.6l7.6,11v-11H274.7z"/>
		<path class="st2" d="M277.3,90.3c0-3.1,2.5-5.6,5.6-5.6c3.1,0,5.6,2.4,5.6,5.6s-2.5,5.6-5.6,5.6C279.7,95.9,277.3,93.5,277.3,90.3
			z M286.6,90.3c0-2.1-1.6-3.8-3.7-3.8c-2.1,0-3.7,1.6-3.7,3.8s1.6,3.8,3.7,3.8C284.9,94.1,286.6,92.5,286.6,90.3z"/>
		<path class="st2" d="M304.7,85.1l-3.3,10.6h-1.9l-2.5-7.8l-2.5,7.8h-1.9l-3.3-10.6h1.9l2.3,8l2.5-8h1.8l2.5,8.1l2.3-8.1H304.7z"/>
	</g>
</g>
</svg>
