<svg xmlns="http://www.w3.org/2000/svg" viewBox="-20 -20 140 51.41486171570081" xmlns:xlink="http://www.w3.org/1999/xlink" version="1.1"  ><rect width="100%" height="100%" x="-20" y="-20" fill="#000000" ></rect><g transform="translate(15.723613188316765 5.536207932114894) scale(0.05707430857850406)" id="horizontalContainerlessSvgTemplate"><g fill="#FFFFFF"><g transform="translate(-3.513513513513513 57.83783783783783) scale(1.8768768768768764)" fill="#FFFFFF"><g id="line1" fill="#FFFFFF"><path d="M40.680-38.520C39.600-44.496 34.776-52.128 22.032-52.128C12.240-52.128 3.744-45.360 3.744-35.712C3.744-28.152 9.000-22.392 17.640-20.736L24.624-19.440C28.008-18.792 30.096-16.920 30.096-14.328C30.096-11.160 27.360-9.000 22.896-9.000C15.912-9.000 12.744-13.104 12.312-17.784L1.872-15.264C2.592-8.064 8.640 1.080 22.752 1.080C34.920 1.080 41.616-7.056 41.616-15.048C41.616-22.320 36.576-28.584 26.856-30.384L20.016-31.680C16.488-32.328 14.976-34.128 14.976-36.576C14.976-39.384 17.712-42.048 21.960-42.048C28.152-42.048 30.096-38.016 30.456-35.640Z"></path><path d="M92.369 1.152C103.601 1.152 112.601-5.616 112.601-18.432L112.601-51.048L101.225-51.048L101.225-19.368C101.225-13.176 97.769-10.080 92.369-10.080C86.969-10.080 83.513-13.176 83.513-19.368L83.513-51.048L72.137-51.048L72.137-18.432C72.137-5.616 81.137 1.152 92.369 1.152Z"></path><path d="M157.882-28.152L157.882-41.184L164.506-41.184C168.826-41.184 171.778-38.736 171.778-34.632C171.778-30.672 168.826-28.152 164.506-28.152ZM165.658-18.360C176.026-18.360 183.154-25.056 183.154-34.704C183.154-44.208 176.026-51.048 165.658-51.048L146.434-51.048L146.434 0L157.810 0L157.810-18.360Z"></path><path d="M246.146 0L246.146-10.800L225.122-10.800L225.122-20.592L244.130-20.592L244.130-30.600L225.122-30.600L225.122-40.320L246.074-40.320L246.074-51.048L213.746-51.048L213.746 0Z"></path><path d="M303.451 0L315.979 0L305.611-20.664C311.875-22.896 315.691-28.152 315.691-35.064C315.691-44.136 309.211-51.048 299.131-51.048L278.899-51.048L278.899 0L290.275 0L290.275-19.008L294.307-19.008ZM290.275-28.800L290.275-41.184L296.971-41.184C301.651-41.184 304.171-38.808 304.171-34.992C304.171-31.392 301.651-28.800 296.971-28.800Z"></path><path d="M356.148-25.560C356.148-36.216 363.780-41.040 370.908-41.040C377.964-41.040 385.596-36.216 385.596-25.560C385.596-14.904 377.964-10.152 370.908-10.152C363.780-10.152 356.148-14.904 356.148-25.560ZM344.340-25.488C344.340-9.360 356.508 1.080 370.908 1.080C385.236 1.080 397.404-9.360 397.404-25.488C397.404-41.688 385.236-52.128 370.908-52.128C356.508-52.128 344.340-41.688 344.340-25.488Z"></path><path d="M453.269 0L465.797 0L455.429-20.664C461.693-22.896 465.509-28.152 465.509-35.064C465.509-44.136 459.029-51.048 448.949-51.048L428.717-51.048L428.717 0L440.093 0L440.093-19.008L444.125-19.008ZM440.093-28.800L440.093-41.184L446.789-41.184C451.469-41.184 453.989-38.808 453.989-34.992C453.989-31.392 451.469-28.800 446.789-28.800Z"></path><path d="M497.110-51.048L497.110 0L517.702 0C527.350 0 533.686-6.120 533.686-14.472C533.686-21.096 529.222-25.344 524.614-26.424C528.790-27.792 532.102-32.112 532.102-37.368C532.102-45.216 526.270-51.048 516.190-51.048ZM508.198-30.600L508.198-41.616L514.246-41.616C518.710-41.616 520.942-39.456 520.942-36.144C520.942-32.688 518.350-30.600 514.390-30.600ZM508.198-9.288L508.198-21.240L515.326-21.240C519.790-21.240 522.382-18.792 522.382-15.264C522.382-11.592 519.718-9.288 515.326-9.288Z"></path><path d="M576.230 0L576.230-51.048L564.710-51.048L564.710 0Z"></path><path d="M649.087-40.176L649.087-51.048L606.247-51.048L606.247-40.176L621.943-40.176L621.943 0L633.319 0L633.319-40.176Z"></path><path d="M713.376 0L725.760 0L706.752-51.048L693.576-51.048L674.352 0L686.304 0L689.976-10.368L709.704-10.368ZM699.984-38.376L706.104-20.736L693.720-20.736Z"></path><path d="M788.609 0L788.609-10.872L766.577-10.872L766.577-51.048L755.201-51.048L755.201 0Z"></path></g></g><g transform="translate(-277.058281677607 -98.63326703129758) scale(1.5876634364763835)" id="logomark"><g fill="#FFFFFF"><path d="M90.9 90.9c-9.8 9.8-20.2 18.3-30.5 25.1 1.2.1 2.4.1 3.6.1 28.8 0 52.1-23.3 52.1-52.1 0-1.2 0-2.4-.1-3.6-6.8 10.3-15.3 20.7-25.1 30.5zM122.2 5.8c-8-8-24.4-5.9-45 6-.6.3-1 .9-1.1 1.5-1.6-.4-3.2-.7-4.8-.9-2.4-.3-4.8-.5-7.3-.5-28.8 0-52.1 23.3-52.1 52.1 0 2.5.2 4.9.5 7.3.2 1.6.5 3.2.9 4.8-.6.2-1.2.6-1.5 1.1-11.9 20.6-14.1 37-6 45 3.2 3.2 7.7 4.8 13.3 4.8 8.5 0 19.3-3.6 31.7-10.8 12.2-7.1 24.9-17 36.7-28.8 11.7-11.7 21.7-24.4 28.8-36.7 11.8-20.5 14-36.9 5.9-44.9zM112 48.3C105.1 60.2 95.5 72.6 84 84c-11.5 11.5-23.8 21.1-35.7 28-18 10.4-32.9 13-39.1 6.8-5.9-6-3.7-20.1 5.7-37.2.7 2 1.5 3.9 2.5 5.8 5 10 13.2 18.2 23.2 23.2 1.7-.9 3.5-1.8 5.3-2.8 11.5-6.6 23.5-16.1 34.6-27.2 11.2-11.2 20.6-23.1 27.2-34.6 1.1-1.8 2-3.6 2.8-5.3-5-10-13.2-18.2-23.2-23.2-1.9-.9-3.8-1.8-5.8-2.5 17.1-9.4 31.2-11.7 37.2-5.7 6.2 6.1 3.6 21.1-6.7 39z"></path></g></g></g></g></svg>