<svg width="2633" height="513" viewBox="0 0 2633 513" fill="none" xmlns="http://www.w3.org/2000/svg">
<path d="M791.785 368L710.505 268.48V368H665.705V144.64H710.505V244.8L791.785 144.64H845.865L753.705 255.36L848.425 368H791.785Z" fill="#005EB8"/>
<path d="M1045.25 190.72V368H1000.13V345.6C994.373 353.28 986.799 359.36 977.413 363.84C968.239 368.107 958.213 370.24 947.333 370.24C933.466 370.24 921.199 367.36 910.532 361.6C899.866 355.627 891.439 346.987 885.253 335.68C879.279 324.16 876.292 310.507 876.292 294.72V190.72H921.093V288.32C921.093 302.4 924.613 313.28 931.653 320.96C938.693 328.427 948.293 332.16 960.453 332.16C972.826 332.16 982.533 328.427 989.573 320.96C996.613 313.28 1000.13 302.4 1000.13 288.32V190.72H1045.25Z" fill="#005EB8"/>
<path d="M1134.26 216.64C1140.02 208.107 1147.91 201.173 1157.94 195.84C1168.18 190.507 1179.8 187.84 1192.82 187.84C1207.96 187.84 1221.62 191.573 1233.78 199.04C1246.15 206.507 1255.86 217.173 1262.9 231.04C1270.15 244.693 1273.78 260.587 1273.78 278.72C1273.78 296.853 1270.15 312.96 1262.9 327.04C1255.86 340.907 1246.15 351.68 1233.78 359.36C1221.62 367.04 1207.96 370.88 1192.82 370.88C1179.59 370.88 1167.96 368.32 1157.94 363.2C1148.12 357.867 1140.23 351.04 1134.26 342.72V368H1089.45V131.2H1134.26V216.64ZM1228.02 278.72C1228.02 268.053 1225.78 258.88 1221.3 251.2C1217.03 243.307 1211.27 237.333 1204.02 233.28C1196.98 229.227 1189.29 227.2 1180.97 227.2C1172.87 227.2 1165.19 229.333 1157.94 233.6C1150.9 237.653 1145.14 243.627 1140.66 251.52C1136.39 259.413 1134.26 268.693 1134.26 279.36C1134.26 290.027 1136.39 299.307 1140.66 307.2C1145.14 315.093 1150.9 321.173 1157.94 325.44C1165.19 329.493 1172.87 331.52 1180.97 331.52C1189.29 331.52 1196.98 329.387 1204.02 325.12C1211.27 320.853 1217.03 314.773 1221.3 306.88C1225.78 298.987 1228.02 289.6 1228.02 278.72Z" fill="#005EB8"/>
<path d="M1471.13 275.52C1471.13 281.92 1470.7 287.68 1469.85 292.8H1340.25C1341.32 305.6 1345.8 315.627 1353.69 322.88C1361.58 330.133 1371.29 333.76 1382.81 333.76C1399.45 333.76 1411.29 326.613 1418.33 312.32H1466.65C1461.53 329.387 1451.72 343.467 1437.21 354.56C1422.7 365.44 1404.89 370.88 1383.77 370.88C1366.7 370.88 1351.34 367.147 1337.69 359.68C1324.25 352 1313.69 341.227 1306.01 327.36C1298.54 313.493 1294.81 297.493 1294.81 279.36C1294.81 261.013 1298.54 244.907 1306.01 231.04C1313.48 217.173 1323.93 206.507 1337.37 199.04C1350.81 191.573 1366.28 187.84 1383.77 187.84C1400.62 187.84 1415.66 191.467 1428.89 198.72C1442.33 205.973 1452.68 216.32 1459.93 229.76C1467.4 242.987 1471.13 258.24 1471.13 275.52ZM1424.73 262.72C1424.52 251.2 1420.36 242.027 1412.25 235.2C1404.14 228.16 1394.22 224.64 1382.49 224.64C1371.4 224.64 1362.01 228.053 1354.33 234.88C1346.86 241.493 1342.28 250.773 1340.57 262.72H1424.73Z" fill="#005EB8"/>
<path d="M1689.11 144.64V368H1644.31V272.96H1548.63V368H1503.83V144.64H1548.63V236.48H1644.31V144.64H1689.11Z" fill="#005EB8"/>
<path d="M1900.56 190.72V368H1855.45V345.6C1849.69 353.28 1842.11 359.36 1832.72 363.84C1823.55 368.107 1813.53 370.24 1802.65 370.24C1788.78 370.24 1776.51 367.36 1765.84 361.6C1755.18 355.627 1746.75 346.987 1740.56 335.68C1734.59 324.16 1731.6 310.507 1731.6 294.72V190.72H1776.41V288.32C1776.41 302.4 1779.92 313.28 1786.96 320.96C1794 328.427 1803.61 332.16 1815.77 332.16C1828.14 332.16 1837.85 328.427 1844.89 320.96C1851.93 313.28 1855.45 302.4 1855.45 288.32V190.72H1900.56Z" fill="#005EB8"/>
<path d="M1933.25 278.72C1933.25 260.8 1936.77 244.907 1943.81 231.04C1951.06 217.173 1960.87 206.507 1973.25 199.04C1985.62 191.573 1999.38 187.84 2014.53 187.84C2026.05 187.84 2037.03 190.4 2047.49 195.52C2057.94 200.427 2066.26 207.04 2072.45 215.36V131.2H2117.89V368H2072.45V341.76C2066.9 350.507 2059.11 357.547 2049.09 362.88C2039.06 368.213 2027.43 370.88 2014.21 370.88C1999.27 370.88 1985.62 367.04 1973.25 359.36C1960.87 351.68 1951.06 340.907 1943.81 327.04C1936.77 312.96 1933.25 296.853 1933.25 278.72ZM2072.77 279.36C2072.77 268.48 2070.63 259.2 2066.37 251.52C2062.1 243.627 2056.34 237.653 2049.09 233.6C2041.83 229.333 2034.05 227.2 2025.73 227.2C2017.41 227.2 2009.73 229.227 2002.69 233.28C1995.65 237.333 1989.89 243.307 1985.41 251.2C1981.14 258.88 1979.01 268.053 1979.01 278.72C1979.01 289.387 1981.14 298.773 1985.41 306.88C1989.89 314.773 1995.65 320.853 2002.69 325.12C2009.94 329.387 2017.62 331.52 2025.73 331.52C2034.05 331.52 2041.83 329.493 2049.09 325.44C2056.34 321.173 2062.1 315.2 2066.37 307.52C2070.63 299.627 2072.77 290.24 2072.77 279.36Z" fill="#005EB8"/>
<path d="M2150.12 278.72C2150.12 260.8 2153.64 244.907 2160.68 231.04C2167.94 217.173 2177.75 206.507 2190.12 199.04C2202.5 191.573 2216.26 187.84 2231.4 187.84C2242.92 187.84 2253.91 190.4 2264.36 195.52C2274.82 200.427 2283.14 207.04 2289.32 215.36V131.2H2334.76V368H2289.32V341.76C2283.78 350.507 2275.99 357.547 2265.96 362.88C2255.94 368.213 2244.31 370.88 2231.08 370.88C2216.15 370.88 2202.5 367.04 2190.12 359.36C2177.75 351.68 2167.94 340.907 2160.68 327.04C2153.64 312.96 2150.12 296.853 2150.12 278.72ZM2289.64 279.36C2289.64 268.48 2287.51 259.2 2283.24 251.52C2278.98 243.627 2273.22 237.653 2265.96 233.6C2258.71 229.333 2250.92 227.2 2242.6 227.2C2234.28 227.2 2226.6 229.227 2219.56 233.28C2212.52 237.333 2206.76 243.307 2202.28 251.2C2198.02 258.88 2195.88 268.053 2195.88 278.72C2195.88 289.387 2198.02 298.773 2202.28 306.88C2206.76 314.773 2212.52 320.853 2219.56 325.12C2226.82 329.387 2234.5 331.52 2242.6 331.52C2250.92 331.52 2258.71 329.493 2265.96 325.44C2273.22 321.173 2278.98 315.2 2283.24 307.52C2287.51 299.627 2289.64 290.24 2289.64 279.36Z" fill="#005EB8"/>
<path d="M2423.32 131.2V368H2378.52V131.2H2423.32Z" fill="#005EB8"/>
<path d="M2632.38 275.52C2632.38 281.92 2631.95 287.68 2631.1 292.8H2501.5C2502.57 305.6 2507.05 315.627 2514.94 322.88C2522.83 330.133 2532.54 333.76 2544.06 333.76C2560.7 333.76 2572.54 326.613 2579.58 312.32H2627.9C2622.78 329.387 2612.97 343.467 2598.46 354.56C2583.95 365.44 2566.14 370.88 2545.02 370.88C2527.95 370.88 2512.59 367.147 2498.94 359.68C2485.5 352 2474.94 341.227 2467.26 327.36C2459.79 313.493 2456.06 297.493 2456.06 279.36C2456.06 261.013 2459.79 244.907 2467.26 231.04C2474.73 217.173 2485.18 206.507 2498.62 199.04C2512.06 191.573 2527.53 187.84 2545.02 187.84C2561.87 187.84 2576.91 191.467 2590.14 198.72C2603.58 205.973 2613.93 216.32 2621.18 229.76C2628.65 242.987 2632.38 258.24 2632.38 275.52ZM2585.98 262.72C2585.77 251.2 2581.61 242.027 2573.5 235.2C2565.39 228.16 2555.47 224.64 2543.74 224.64C2532.65 224.64 2523.26 228.053 2515.58 234.88C2508.11 241.493 2503.53 250.773 2501.82 262.72H2585.98Z" fill="#005EB8"/>
<path d="M513 256.5C513 398.161 398.161 513 256.5 513C114.839 513 0 398.161 0 256.5C0 114.839 114.839 0 256.5 0C398.161 0 513 114.839 513 256.5Z" fill="#005EB8"/>
<path d="M387.269 405.587C382.064 390.533 374.333 376.657 364.581 364.468L320.613 408.434C325.956 416.499 329.823 425.625 331.815 435.437H332.019C351.949 428.135 370.525 418.025 387.269 405.587Z" fill="white"/>
<path d="M180.981 435.437H181.188C183.18 425.626 187.047 416.499 192.39 408.434L148.422 364.465C138.669 376.656 130.938 390.533 125.733 405.589C142.476 418.026 161.052 428.135 180.981 435.437Z" fill="white"/>
<path d="M241.131 375.493H241.132V313.325C214.452 316.274 190.06 326.809 170.161 342.729L214.127 386.695C222.194 381.354 231.32 377.485 241.131 375.493Z" fill="white"/>
<path d="M342.844 342.729C322.943 326.808 298.551 316.274 271.872 313.325V375.493C281.682 377.485 290.809 381.352 298.876 386.695L342.844 342.729Z" fill="white"/>
<path fill-rule="evenodd" clip-rule="evenodd" d="M109.457 339.455C101.811 349.536 95.1784 360.428 89.7108 371.978C92.7321 375.426 95.4797 378.462 98.1018 381.232C98.5435 381.693 98.9873 382.151 99.433 382.608C104.437 387.733 109.69 392.614 115.173 397.231C118.357 399.871 121.804 402.584 125.733 405.589C130.938 390.533 138.669 376.656 148.422 364.465L192.39 408.434C187.047 416.499 183.18 425.626 181.188 435.437H180.981C201.027 441.555 218.086 445.66 234.263 447.661C235.117 447.747 235.972 447.828 236.829 447.904C243.309 448.479 249.87 448.773 256.5 448.773C264.883 448.773 273.156 448.304 281.294 447.389C296.615 445.328 312.958 441.369 332.019 435.437H331.815C329.823 425.625 325.956 416.499 320.613 408.434L364.581 364.468C374.333 376.657 382.064 390.533 387.269 405.587C391.366 402.444 394.94 399.625 398.223 396.897L398.224 396.896C398.242 396.882 398.259 396.867 398.276 396.852C405.22 390.972 411.794 384.668 417.957 377.98C419.659 376.113 421.424 374.124 423.292 371.975C417.825 360.427 411.193 349.537 403.548 339.456C416.863 330.76 427.168 323.62 430.407 320.384C442.41 308.378 442.41 288.911 430.402 276.908C418.399 264.902 398.932 264.902 386.929 276.905C383.693 280.142 376.552 290.448 367.854 303.764C343.244 285.098 313.807 272.475 281.742 268.085C285.007 252.524 287.243 240.192 287.243 235.615C287.243 218.639 273.479 204.875 256.502 204.875C239.525 204.875 225.76 218.639 225.76 235.615C225.76 240.192 227.996 252.523 231.261 268.084C199.196 272.472 169.758 285.096 145.149 303.761C136.453 290.447 129.313 280.144 126.076 276.905C114.073 264.901 94.6041 264.901 82.6026 276.907C70.5965 288.911 70.5965 308.378 82.5995 320.38C85.8366 323.617 96.1427 330.758 109.457 339.455ZM241.131 375.493H241.132V313.325C214.452 316.274 190.06 326.809 170.161 342.729L214.127 386.695C222.194 381.354 231.32 377.485 241.131 375.493ZM342.844 342.729C322.943 326.808 298.551 316.274 271.872 313.325V375.493C281.682 377.485 290.809 381.352 298.876 386.695L342.844 342.729Z" fill="#005EB8"/>
<path d="M183.737 187.802C183.737 210.926 164.991 229.671 141.868 229.671C118.744 229.671 99.9984 210.926 99.9984 187.802C99.9984 164.678 118.744 145.933 141.868 145.933C164.991 145.933 183.737 164.678 183.737 187.802Z" fill="#005EB8"/>
<path d="M413.002 187.802C413.002 210.926 394.256 229.671 371.132 229.671C348.009 229.671 329.263 210.926 329.263 187.802C329.263 164.678 348.009 145.933 371.132 145.933C394.256 145.933 413.002 164.678 413.002 187.802Z" fill="#005EB8"/>
<path d="M302.841 125.201C302.841 150.795 282.093 171.542 256.5 171.542C230.907 171.542 210.159 150.795 210.159 125.201C210.159 99.608 230.907 78.8605 256.5 78.8605C282.093 78.8605 302.841 99.608 302.841 125.201Z" fill="#005EB8"/>
<path fill-rule="evenodd" clip-rule="evenodd" d="M256.5 36.9913C135.269 36.9913 36.9913 135.269 36.9913 256.5C36.9913 310.988 56.8441 333.603 89.7108 371.978C95.1784 360.428 101.811 349.536 109.457 339.455C96.1427 330.758 85.8366 323.617 82.5995 320.38C70.5965 308.378 70.5965 288.911 82.6026 276.907C94.6041 264.901 114.073 264.901 126.076 276.905C129.313 280.144 136.453 290.447 145.149 303.761C169.758 285.096 199.196 272.472 231.261 268.084C227.996 252.523 225.76 240.192 225.76 235.615C225.76 218.639 239.525 204.875 256.502 204.875C273.479 204.875 287.243 218.639 287.243 235.615C287.243 240.192 285.007 252.524 281.742 268.085C313.807 272.475 343.244 285.098 367.854 303.764C376.552 290.448 383.693 280.142 386.929 276.905C398.932 264.902 418.399 264.902 430.402 276.908C442.41 288.911 442.41 308.378 430.407 320.384C427.168 323.62 416.863 330.76 403.548 339.456C411.193 349.537 417.825 360.427 423.292 371.975C456.157 333.601 476.009 310.986 476.009 256.5C476.009 135.269 377.731 36.9913 256.5 36.9913ZM256.5 171.542C282.093 171.542 302.841 150.795 302.841 125.201C302.841 99.608 282.093 78.8605 256.5 78.8605C230.907 78.8605 210.159 99.608 210.159 125.201C210.159 150.795 230.907 171.542 256.5 171.542ZM141.868 229.671C164.991 229.671 183.737 210.926 183.737 187.802C183.737 164.678 164.991 145.933 141.868 145.933C118.744 145.933 99.9984 164.678 99.9984 187.802C99.9984 210.926 118.744 229.671 141.868 229.671ZM371.132 229.671C394.256 229.671 413.002 210.926 413.002 187.802C413.002 164.678 394.256 145.933 371.132 145.933C348.009 145.933 329.263 164.678 329.263 187.802C329.263 210.926 348.009 229.671 371.132 229.671Z" fill="white"/>
</svg>
