<?xml version="1.0" encoding="UTF-8" standalone="no"?><!DOCTYPE svg PUBLIC "-//W3C//DTD SVG 1.1//EN" "http://www.w3.org/Graphics/SVG/1.1/DTD/svg11.dtd"><svg width="100%" height="100%" viewBox="0 0 2138 2138" version="1.1" xmlns="http://www.w3.org/2000/svg" xmlns:xlink="http://www.w3.org/1999/xlink" xml:space="preserve" xmlns:serif="http://www.serif.com/" style="fill-rule:evenodd;clip-rule:evenodd;stroke-linejoin:round;stroke-miterlimit:2;"><path d="M2137.5,1068.75c0,590.254 -478.496,1068.75 -1068.75,1068.75c-590.254,0 -1068.75,-478.496 -1068.75,-1068.75c0,-590.254 478.496,-1068.75 1068.75,-1068.75c590.254,0 1068.75,478.496 1068.75,1068.75Z" style="fill:#0065bf;fill-rule:nonzero;"/><path d="M1613.62,1689.95c-21.688,-62.725 -53.9,-120.542 -94.534,-171.329l-183.199,183.191c22.262,33.604 38.375,71.63 46.675,112.513l0.85,-0c83.041,-30.425 160.441,-72.55 230.208,-124.375Z" style="fill:#fff;fill-rule:nonzero;"/><path d="M754.088,1814.32l0.862,-0c8.3,-40.879 24.413,-78.909 46.675,-112.513l-183.2,-183.204c-40.637,50.796 -72.85,108.617 -94.537,171.35c69.762,51.821 147.162,93.942 230.2,124.367Z" style="fill:#fff;fill-rule:nonzero;"/><path d="M1004.71,1564.55l0.004,0l-0,-259.033c-111.167,12.287 -212.8,56.183 -295.713,122.516l183.192,183.192c33.612,-22.254 71.637,-38.375 112.517,-46.675Z" style="fill:#fff;fill-rule:nonzero;"/><path d="M1428.52,1428.04c-82.921,-66.338 -184.554,-110.23 -295.717,-122.517l0,259.033c40.875,8.3 78.904,24.413 112.517,46.675l183.2,-183.191Z" style="fill:#fff;fill-rule:nonzero;"/><path d="M456.071,1414.4c-31.858,42.004 -59.494,87.387 -82.276,135.512c12.589,14.367 24.037,27.017 34.962,38.559c1.841,1.921 3.69,3.829 5.547,5.733c20.85,21.354 42.738,41.692 65.584,60.929c13.266,11 27.629,22.304 44,34.825c21.687,-62.733 53.9,-120.554 94.537,-171.35l183.2,183.204c-22.263,33.605 -38.375,71.634 -46.675,112.513l-0.863,-0c83.525,25.492 154.605,42.596 222.009,50.933c3.558,0.359 7.121,0.696 10.692,1.013c26.999,2.396 54.337,3.621 81.962,3.621c34.929,-0 69.4,-1.955 103.308,-5.767c63.838,-8.588 131.934,-25.083 211.354,-49.8l-0.85,-0c-8.3,-40.883 -24.412,-78.908 -46.675,-112.513l183.2,-183.191c40.634,50.787 72.846,108.604 94.534,171.329c17.071,-13.096 31.962,-24.842 45.641,-36.208l0.005,-0.005c0.075,-0.058 0.145,-0.12 0.216,-0.183c28.934,-24.5 56.325,-50.767 82.004,-78.633c7.092,-7.779 14.446,-16.067 22.23,-25.021c-22.78,-48.117 -50.413,-93.492 -82.267,-135.496c55.479,-36.233 98.417,-65.983 111.912,-79.467c50.013,-50.025 50.013,-131.137 -0.02,-181.15c-50.013,-50.025 -131.125,-50.025 -181.138,-0.012c-13.483,13.487 -43.237,56.429 -79.479,111.912c-102.542,-77.775 -225.196,-130.37 -358.8,-148.662c13.604,-64.838 22.921,-116.221 22.921,-135.292c-0,-70.733 -57.35,-128.083 -128.088,-128.083c-70.737,-0 -128.091,57.35 -128.091,128.083c-0,19.071 9.316,70.45 22.92,135.288c-133.604,18.283 -256.262,70.883 -358.8,148.654c-36.233,-55.475 -65.983,-98.404 -79.47,-111.9c-50.013,-50.017 -131.133,-50.017 -181.14,0.008c-50.025,50.017 -50.025,131.129 -0.012,181.138c13.487,13.487 56.43,43.241 111.906,79.479Zm548.641,150.158l0.005,0l-0,-259.033c-111.167,12.287 -212.8,56.183 -295.713,122.517l183.192,183.191c33.612,-22.254 71.637,-38.375 112.516,-46.675Zm423.805,-136.516c-82.921,-66.338 -184.555,-110.23 -295.717,-122.517l-0,259.033c40.875,8.3 78.904,24.413 112.517,46.675l183.2,-183.191Z" style="fill:#0065bf;"/><path d="M765.571,782.508c-0,96.35 -78.108,174.455 -174.454,174.455c-96.35,-0 -174.457,-78.105 -174.457,-174.455c0,-96.35 78.107,-174.454 174.457,-174.454c96.346,0 174.454,78.104 174.454,174.454Z" style="fill:#0065bf;fill-rule:nonzero;"/><path d="M1720.84,782.508c-0,96.35 -78.109,174.455 -174.459,174.455c-96.345,-0 -174.454,-78.105 -174.454,-174.455c0,-96.35 78.109,-174.454 174.454,-174.454c96.35,0 174.459,78.104 174.459,174.454Z" style="fill:#0065bf;fill-rule:nonzero;"/><path d="M1261.84,521.671c-0,106.641 -86.45,193.087 -193.088,193.087c-106.637,0 -193.087,-86.446 -193.087,-193.087c-0,-106.638 86.45,-193.086 193.087,-193.086c106.638,0 193.088,86.448 193.088,193.086Z" style="fill:#0065bf;fill-rule:nonzero;"/><path d="M1068.75,154.13c-505.129,0 -914.62,409.491 -914.62,914.62c0,227.033 82.72,321.263 219.665,481.158c22.782,-48.125 50.418,-93.508 82.276,-135.512c-55.476,-36.238 -98.418,-65.992 -111.906,-79.479c-50.013,-50.009 -50.013,-131.121 0.013,-181.138c50.006,-50.025 131.126,-50.025 181.139,-0.008c13.487,13.496 43.237,56.425 79.471,111.9c102.537,-77.771 225.195,-130.371 358.8,-148.654c-13.605,-64.838 -22.921,-116.217 -22.921,-135.288c-0,-70.733 57.354,-128.083 128.091,-128.083c70.738,-0 128.088,57.35 128.088,128.083c-0,19.071 -9.317,70.454 -22.921,135.292c133.604,18.292 256.258,70.887 358.8,148.662c36.242,-55.483 65.996,-98.425 79.479,-111.912c50.013,-50.013 131.125,-50.013 181.138,0.012c50.033,50.013 50.033,131.125 0.021,181.15c-13.496,13.484 -56.434,43.234 -111.913,79.467c31.854,42.004 59.488,87.379 82.267,135.496c136.937,-159.892 219.654,-254.121 219.654,-481.146c-0,-505.129 -409.492,-914.62 -914.621,-914.62Zm0,560.628c106.638,0 193.088,-86.446 193.088,-193.087c-0,-106.638 -86.45,-193.086 -193.088,-193.086c-106.637,0 -193.087,86.448 -193.087,193.086c-0,106.641 86.45,193.087 193.087,193.087Zm-477.633,242.204c96.346,0 174.454,-78.104 174.454,-174.454c-0,-96.35 -78.108,-174.454 -174.454,-174.454c-96.35,0 -174.457,78.104 -174.457,174.454c0,96.35 78.107,174.454 174.457,174.454Zm955.266,0c96.35,0 174.459,-78.104 174.459,-174.454c-0,-96.35 -78.109,-174.454 -174.459,-174.454c-96.345,0 -174.454,78.104 -174.454,174.454c0,96.35 78.109,174.454 174.454,174.454Z" style="fill:#fff;"/></svg>