<svg width="160" height="160" viewBox="0 0 160 160" fill="none" xmlns="http://www.w3.org/2000/svg">
<path d="M82.6799 140L81.3399 114.303C81.3005 113.447 81.6511 112.619 82.2935 112.052C82.9358 111.485 83.8006 111.239 84.6451 111.385L110.223 115.881L106.769 106.352C106.482 105.575 106.721 104.701 107.365 104.179L135.385 81.4888L129.072 78.5409C128.19 78.1241 127.756 77.1158 128.06 76.1886L133.598 59.1563L117.459 62.5806C116.558 62.7686 115.648 62.2954 115.285 61.4491L112.159 54.0943L99.5632 67.6129C98.9717 68.2369 98.0394 68.3958 97.2745 68.003C96.5097 67.6102 96.0956 66.76 96.258 65.9156L102.332 34.5906L92.5955 40.2184C92.1334 40.4892 91.5798 40.5564 91.0663 40.4041C90.5528 40.2517 90.1254 39.8934 89.8858 39.4144L80 20L70.1141 39.4144C69.8745 39.8934 69.4471 40.2517 68.9336 40.4041C68.4202 40.5564 67.8665 40.4892 67.4044 40.2184L57.6675 34.5906L63.7419 65.9156C63.9043 66.76 63.4903 67.6102 62.7254 68.003C61.9606 68.3958 61.0283 68.2369 60.4367 67.6129L47.8412 54.0943L44.7146 61.4491C44.3515 62.2954 43.4424 62.7686 42.5409 62.5806L26.402 59.1563L31.9404 76.1886C32.2441 77.1158 31.8102 78.1241 30.928 78.5409L24.6154 81.4888L52.6352 104.179C53.2786 104.701 53.5181 105.575 53.2308 106.352L49.7766 115.881L75.3548 111.385C76.1993 111.239 77.0641 111.485 77.7065 112.052C78.3488 112.619 78.6995 113.447 78.66 114.303L77.3201 140H82.6799Z" fill="#0565BE"/>
<path fill-rule="evenodd" clip-rule="evenodd" d="M80 150C118.66 150 150 118.66 150 80C150 41.3401 118.66 10 80 10C41.3401 10 10 41.3401 10 80C10 118.66 41.3401 150 80 150ZM80 160C124.183 160 160 124.183 160 80C160 35.8172 124.183 0 80 0C35.8172 0 0 35.8172 0 80C0 124.183 35.8172 160 80 160Z" fill="#0565BE"/>
</svg>
